<svg xmlns="http://www.w3.org/2000/svg" version="1.1" xmlns:xlink="http://www.w3.org/1999/xlink" width="512" height="512" x="0" y="0" viewBox="0 0 64 64" style="enable-background:new 0 0 512 512" xml:space="preserve" class=""><g><path d="M55.929 25.629a1 1 0 0 0-1.858 0L52.442 29.7A6.166 6.166 0 0 0 52 32a3 3 0 0 0 6 0 6.166 6.166 0 0 0-.442-2.3ZM55 33a1 1 0 0 1-1-1 4.176 4.176 0 0 1 .3-1.558l.7-1.75.7 1.75A4.18 4.18 0 0 1 56 32a1 1 0 0 1-1 1ZM12 32a6.166 6.166 0 0 0-.442-2.3l-1.629-4.071a1 1 0 0 0-1.858 0L6.442 29.7A6.166 6.166 0 0 0 6 32a3 3 0 0 0 6 0Zm-4 0a4.176 4.176 0 0 1 .3-1.558l.7-1.75.7 1.75A4.18 4.18 0 0 1 10 32a1 1 0 0 1-2 0ZM60.929 14.629a1 1 0 0 0-1.858 0L57.442 18.7A6.166 6.166 0 0 0 57 21a3 3 0 0 0 6 0 6.166 6.166 0 0 0-.442-2.3ZM60 22a1 1 0 0 1-1-1 4.176 4.176 0 0 1 .3-1.558l.7-1.75.7 1.75A4.18 4.18 0 0 1 61 21a1 1 0 0 1-1 1ZM7 21a6.166 6.166 0 0 0-.442-2.3l-1.629-4.071a1 1 0 0 0-1.858 0L1.442 18.7A6.166 6.166 0 0 0 1 21a3 3 0 0 0 6 0Zm-3 1a1 1 0 0 1-1-1 4.176 4.176 0 0 1 .3-1.558l.7-1.75.7 1.75A4.18 4.18 0 0 1 5 21a1 1 0 0 1-1 1ZM36.121 42.293l1.586-1.586-1.414-1.414-1.586 1.586a3.829 3.829 0 0 1-5.414 0l-1.586-1.586-1.414 1.414 1.586 1.586a5.828 5.828 0 0 0 8.242 0ZM29.707 31.707l-1.414-1.414L27 31.586a1.451 1.451 0 0 1-2 0l-1.293-1.293-1.414 1.414L23.586 33a3.414 3.414 0 0 0 4.828 0ZM38 34a3.389 3.389 0 0 0 2.414-1l1.293-1.293-1.414-1.414L39 31.586a1.451 1.451 0 0 1-2 0l-1.293-1.293-1.414 1.414L35.586 33A3.389 3.389 0 0 0 38 34Z" fill="#38b6ff" opacity="1" data-original="#000000" class=""></path><path d="M56 37a5.006 5.006 0 0 0-5 5v2.666a3.5 3.5 0 0 0-4.414.334l-4.293 4.293A1 1 0 0 0 42 50v4h-1a4.113 4.113 0 0 1-4.071-3.778 14.153 14.153 0 0 0 4.317-2.46l.331-.275a10.873 10.873 0 0 0 3.427-5.133L45.736 40H46a3.977 3.977 0 0 0 3.071-6.532l.922-7.692a.95.95 0 0 0 .007-.119 14.559 14.559 0 0 0-4.293-10.364 11.679 11.679 0 0 0-.518-.487A7.6 7.6 0 0 0 48 9c0-4.411-4.037-8-9-8s-9 3.589-9 8a7.106 7.106 0 0 0 .287 2h-1.63A14.657 14.657 0 0 0 14 25.657a.95.95 0 0 0 .007.119l.922 7.692A3.977 3.977 0 0 0 18 40h.279l.884 2.65a10.874 10.874 0 0 0 3.356 4.917 14.954 14.954 0 0 0 4.464 2.559A4.075 4.075 0 0 1 22.972 54H22v-4a1 1 0 0 0-.293-.707L17.414 45A3.5 3.5 0 0 0 13 44.666V42a5.006 5.006 0 0 0-5-5 1 1 0 0 0-1 1v9.343a4.969 4.969 0 0 0 1.465 3.536l4.293 4.294a7.761 7.761 0 0 0-1.465 1.12A7.883 7.883 0 0 0 9 61.828V62h2v-.172a5.868 5.868 0 0 1 1.707-4.121c.091-.09.2-.161.293-.245V62h2v-7a1 1 0 0 0-.293-.707l-4.828-4.828A2.98 2.98 0 0 1 9 47.343v-8.172A3.006 3.006 0 0 1 11 42v5a1 1 0 0 0 .293.707l3 3 1.414-1.414L13.414 47l.586-.586a1.451 1.451 0 0 1 2 0l4 4V62h2v-6h.585l.262.262A12.683 12.683 0 0 0 31.873 60a12.811 12.811 0 0 0 7.975-2.8l1.5-1.2H42v6h2V50.414l4-4a1.451 1.451 0 0 1 2 0l.586.586-2.293 2.293 1.414 1.414 3-3A1 1 0 0 0 53 47v-5a3.006 3.006 0 0 1 2-2.829v8.172a2.98 2.98 0 0 1-.879 2.122l-4.828 4.828A1 1 0 0 0 49 55v7h2v-4.538c.1.084.2.154.293.245A5.868 5.868 0 0 1 53 61.828V62h2v-.172a7.883 7.883 0 0 0-2.293-5.535 7.757 7.757 0 0 0-1.466-1.12l4.294-4.294A4.969 4.969 0 0 0 57 47.343V38a1 1 0 0 0-1-1ZM19.707 16.707A12.573 12.573 0 0 1 28.657 13h3.123a1 1 0 0 0 .879-1.478A5.232 5.232 0 0 1 32 9c0-3.309 3.141-6 7-6s7 2.691 7 6a5.808 5.808 0 0 1-2.973 4.9 1 1 0 0 0-.084 1.655A12.419 12.419 0 0 1 48 25.6l-.792 6.608A3.936 3.936 0 0 0 46 32v-8a1 1 0 0 0-1-1h-5a14.087 14.087 0 0 1-8.4-2.8 1 1 0 0 0-1.4.2A9.044 9.044 0 0 1 23 24h-4a1 1 0 0 0-1 1v7a3.936 3.936 0 0 0-1.208.207L16 25.6a12.576 12.576 0 0 1 3.707-8.893Zm1.353 25.311-1.112-3.334A1 1 0 0 0 19 38h-1a2 2 0 0 1 0-4h1a1 1 0 0 0 1-1v-7h3a11.065 11.065 0 0 0 8.184-3.649A16.122 16.122 0 0 0 40 25h4v8a1 1 0 0 0 1 1h1a2 2 0 0 1 0 4h-1a1 1 0 0 0-.955.7l-.945 3.06a8.87 8.87 0 0 1-2.8 4.19l-.331.276a11.953 11.953 0 0 1-7.883 2.809h-.149a13.021 13.021 0 0 1-8.136-3 8.858 8.858 0 0 1-2.741-4.017ZM31.873 58a10.683 10.683 0 0 1-6.773-2.4 6.131 6.131 0 0 0 3.853-4.913 14.961 14.961 0 0 0 2.959.349l.014-1 .134 1h.2a13.856 13.856 0 0 0 2.715-.278 6.151 6.151 0 0 0 3.748 4.789l-.117.094A10.8 10.8 0 0 1 31.873 58Z" fill="#38b6ff" opacity="1" data-original="#000000" class=""></path></g></svg>