<svg xmlns="http://www.w3.org/2000/svg" version="1.1" xmlns:xlink="http://www.w3.org/1999/xlink" width="512" height="512" x="0" y="0" viewBox="0 0 500 500" style="enable-background:new 0 0 512 512" xml:space="preserve" class=""><g><path d="M434.156 452.301h-74.015c-52.189 0-101.556-20.024-139.002-56.382L57.702 237.229c-19.56-18.989-15.026-43.469-2.538-58.176 12.222-14.396 35.164-22.639 56.639-6.74l1.753 1.321c13.994 10.766 29.137 29.731 48.31 53.736 54.486 68.229 136.948 171.496 272.301 169.936 7.221.147 14.144 2.722 19.346 7.865 5.273 5.22 8.177 12.179 8.177 19.597-.001 15.181-12.352 27.533-27.534 27.533zM86.984 179.415c-7.896 0-15.033 4.063-19.881 9.773-8.187 9.64-10.897 24.76 1.509 36.806l163.436 158.69c34.507 33.503 80 51.957 128.093 51.957h74.015c6.545 0 11.873-5.327 11.873-11.872 0-3.207-1.254-6.21-3.531-8.462-2.209-2.182-5.09-3.161-8.169-3.339-.978.01-1.967.015-2.941.015-141.347.005-225.762-105.719-281.759-175.839-17.779-22.263-33.13-41.486-45.618-51.096l-1.532-1.152c-5.21-3.859-10.504-5.481-15.495-5.481z" fill="#38b6ff" opacity="1" data-original="#000000"></path><path d="M444.78 416.011a7.833 7.833 0 0 1-7.792-7.158 57.798 57.798 0 0 0-34.63-48.118c-11.263-4.884-24.324-11.012-38.822-18.21-21.74-10.802-36.47-31.627-39.404-55.699l-11.144-91.383c-.221-1.82-1.257-2.876-2.085-3.446-1.295-.892-2.974-1.162-4.588-.759-11.98 3.028-29.942 4.399-53.31 4.201-53.507-.561-72.326-49.087-75.894-81.673-38.463 13.739-74.342 63.244-74.727 63.779a7.827 7.827 0 0 1-10.926 1.799 7.825 7.825 0 0 1-1.802-10.92c1.832-2.564 45.447-62.795 93.078-72.465 2.272-.474 4.642.118 6.454 1.565a7.843 7.843 0 0 1 2.931 5.964c.061 3.09 2.144 75.673 61.049 76.289 22.061.26 38.634-1.03 49.306-3.722 5.967-1.514 12.27-.413 17.282 3.023a20.554 20.554 0 0 1 8.776 14.467l11.144 91.384c2.296 18.831 13.82 35.118 30.827 43.565 14.256 7.081 27.072 13.091 38.089 17.873a73.433 73.433 0 0 1 44.002 61.139 7.83 7.83 0 0 1-7.129 8.473 7.56 7.56 0 0 1-.685.032z" fill="#38b6ff" opacity="1" data-original="#000000"></path><path d="M300.114 377.542c-.434 0-.872-.036-1.313-.107a7.835 7.835 0 0 1-6.418-9.028c7.833-46.421 46.962-59.838 48.623-60.389 4.089-1.34 8.532.877 9.891 4.986a7.823 7.823 0 0 1-4.948 9.874c-1.3.443-31.899 11.246-38.124 48.139a7.83 7.83 0 0 1-7.711 6.525zM188.434 280a7.831 7.831 0 0 1-5.068-13.804c39.715-33.651 10.588-102.996 10.29-103.69a7.836 7.836 0 0 1 4.109-10.288c3.983-1.687 8.579.137 10.282 4.109 1.407 3.278 33.892 80.765-14.557 121.818a7.81 7.81 0 0 1-5.056 1.855zM300.099 229.563a7.826 7.826 0 0 1-7.581-5.893 7.826 7.826 0 0 1 5.648-9.522l23.254-5.939c4.201-1.086 8.457 1.458 9.523 5.648a7.827 7.827 0 0 1-5.649 9.522l-23.254 5.939a7.737 7.737 0 0 1-1.941.245zM303.422 263.733a7.83 7.83 0 0 1-3.074-15.033l23.6-10.063c3.979-1.703 8.579.152 10.275 4.134a7.83 7.83 0 0 1-4.132 10.272l-23.6 10.063a7.789 7.789 0 0 1-3.069.627zM315.229 299.612a7.816 7.816 0 0 1-6.439-3.365c-2.467-3.548-1.588-8.432 1.963-10.899l16.042-11.144c3.567-2.457 8.435-1.586 10.899 1.968a7.832 7.832 0 0 1-1.962 10.898l-16.043 11.145a7.818 7.818 0 0 1-4.46 1.397zM467.17 452.301H71.788a7.83 7.83 0 1 1 0-15.66H467.17a7.831 7.831 0 0 1 0 15.66zM161.733 405.524h-57.289a7.83 7.83 0 1 1 0-15.66h57.289a7.83 7.83 0 0 1 0 15.66zM123.538 354.021H66.249a7.83 7.83 0 0 1 0-15.66h57.289a7.83 7.83 0 1 1 0 15.66zM90.117 302.512H32.83a7.83 7.83 0 1 1 0-15.66h57.286a7.83 7.83 0 0 1 .001 15.66zM184.294 111.461a7.805 7.805 0 0 1-5.682-2.437 7.834 7.834 0 0 1 .288-11.072l50.672-48.103a7.837 7.837 0 0 1 11.071.285 7.834 7.834 0 0 1-.288 11.072l-50.673 48.103a7.8 7.8 0 0 1-5.388 2.152zM315.214 193.302a7.813 7.813 0 0 1-4.346-1.321c-3.594-2.406-4.56-7.27-2.156-10.863l51.876-77.563c2.406-3.599 7.262-4.558 10.863-2.157 3.594 2.406 4.56 7.27 2.156 10.863l-51.875 77.563a7.829 7.829 0 0 1-6.518 3.478zM117.337 284.9a7.815 7.815 0 0 1-5.824-2.595c-2.89-3.211-2.63-8.162.584-11.057l10.731-9.655a7.832 7.832 0 0 1 10.475 11.643l-10.731 9.655a7.802 7.802 0 0 1-5.235 2.009zM154.199 327.834a7.818 7.818 0 0 1-6.637-3.666 7.827 7.827 0 0 1 2.462-10.793l14.508-9.119c3.655-2.31 8.49-1.208 10.797 2.461a7.828 7.828 0 0 1-2.462 10.793l-14.508 9.12a7.776 7.776 0 0 1-4.16 1.204zM212.077 384.036a7.83 7.83 0 0 1-3.092-15.023l15.128-6.494c3.959-1.708 8.575.127 10.285 4.103 1.706 3.977-.132 8.58-4.106 10.282l-15.128 6.495a7.779 7.779 0 0 1-3.087.637zM277.296 433.455a7.8 7.8 0 0 1-5.806-2.575 7.83 7.83 0 0 1 .548-11.062l11.997-10.863c3.206-2.9 8.162-2.656 11.059.55a7.831 7.831 0 0 1-.548 11.063l-11.998 10.863a7.8 7.8 0 0 1-5.252 2.024z" fill="#38b6ff" opacity="1" data-original="#000000"></path><path d="M373.466 452.301a7.83 7.83 0 0 1-7.83-7.83V428.49a7.83 7.83 0 0 1 15.66 0v15.982a7.829 7.829 0 0 1-7.83 7.829z" fill="#38b6ff" opacity="1" data-original="#000000"></path></g></svg>