<svg xmlns="http://www.w3.org/2000/svg" version="1.1" xmlns:xlink="http://www.w3.org/1999/xlink" width="512" height="512" x="0" y="0" viewBox="0 0 64 64" style="enable-background:new 0 0 512 512" xml:space="preserve" class=""><g><path d="M33 17a7.95 7.95 0 0 0 7.93-9H46a1 1 0 0 0 0-2h-5.589A7.998 7.998 0 1 0 33 17Zm0-14a5.998 5.998 0 0 1 5.188 3H27.812A5.998 5.998 0 0 1 33 3Zm-5.91 5h11.82a6 6 0 1 1-11.82 0ZM17 34h6a1 1 0 0 1 0 2h-6a1 1 0 0 1 0-2ZM2 36a1 1 0 0 1 0-2h11a1 1 0 0 1 0 2Zm18-6a1 1 0 0 1 0-2h3a1 1 0 0 1 0 2ZM2 29a1 1 0 0 1 1-1h13a1 1 0 0 1 0 2H3a1 1 0 0 1-1-1Zm1-6a1 1 0 0 1 1-1h7a1 1 0 0 1 0 2H4a1 1 0 0 1-1-1Zm11 16a1 1 0 0 1 0 2H5a1 1 0 0 1 0-2Zm46-29H46a3.003 3.003 0 0 0-3 3v14a2.966 2.966 0 0 0 .184 1h-.876l-6.626-7.212a5.013 5.013 0 0 0-2.994-1.57l-5.118-.71A4.956 4.956 0 0 0 22.12 22H15a1 1 0 0 0 0 2h9a1 1 0 0 0 1-1 .986.986 0 0 0-.755-.95 2.978 2.978 0 0 1 3.05-1.562l5.117.711a3.01 3.01 0 0 1 1.797.943l6.923 7.535a1 1 0 0 0 .736.323h8.543a1.59 1.59 0 0 1 .113 3.175l-10.353.74a1.577 1.577 0 0 1-1.28-.508l-1.169-1.265v-.001l-6.976-7.807a1 1 0 1 0-1.492 1.332l1.47 1.646a90.068 90.068 0 0 0-1.76 10.228 1.001 1.001 0 0 0 .477.98l10.013 6.021a1.528 1.528 0 0 1 .484 2.157l-8.536 12.804a1.528 1.528 0 0 1-2.606-1.592l5.838-10.472a1 1 0 0 0-.37-1.351l-8.35-4.864a1 1 0 0 0-1.404.43l-4.675 9.681-14.634 2.21a1.531 1.531 0 0 1-1.729-1.219l-.02-.102a1.52 1.52 0 0 1 1.167-1.784l12.093-2.707a.998.998 0 0 0 .682-.541s2.593-5.37 2.99-6.19H21a1 1 0 0 0 0-2h-3a1 1 0 0 0 0 2h.2c-.49.94-1.222 2.45-2.397 4.885l-11.62 2.601a3.509 3.509 0 0 0-2.694 4.118l.02.103A3.529 3.529 0 0 0 5.5 55.523l15.156-2.29a1 1 0 0 0 .751-.554l4.435-9.183 6.568 3.825-5.36 9.615A3.54 3.54 0 0 0 27.515 61H22a1 1 0 0 0 0 2h17a1 1 0 0 0 0-2h-6.27a3.422 3.422 0 0 0 .336-.389l8.536-12.803a3.53 3.53 0 0 0-1.118-4.982l-9.455-5.685c.386-3.036.808-5.601 1.303-7.893l5.088 5.516a3.538 3.538 0 0 0 2.894 1.144l10.352-.74A3.601 3.601 0 0 0 54 31.589 3.542 3.542 0 0 0 53.612 30H60a3.003 3.003 0 0 0 3-3V13a3.003 3.003 0 0 0-3-3Zm-9 2h4v4.586l-1.293-1.293a1 1 0 0 0-1.414 0L51 16.586Zm10 15a1 1 0 0 1-1 1H46a1 1 0 0 1-1-1V13a1 1 0 0 1 1-1h3v7a1 1 0 0 0 1.707.707L53 17.414l2.293 2.293A1 1 0 0 0 57 19v-7h3a1 1 0 0 1 1 1Zm-9-4a1 1 0 0 1-1 1h-4a1 1 0 0 1 0-2h4a1 1 0 0 1 1 1Zm0 3a1 1 0 0 1-1 1h-4a1 1 0 0 1 0-2h4a1 1 0 0 1 1 1Z" data-name="Layer 2" fill="#38b6ff" opacity="1" data-original="#000000"></path></g></svg>