<svg xmlns="http://www.w3.org/2000/svg" version="1.1" xmlns:xlink="http://www.w3.org/1999/xlink" width="512" height="512" x="0" y="0" viewBox="0 0 480 480" style="enable-background:new 0 0 512 512" xml:space="preserve" class=""><g><path d="M456 240h-8V72c-.026-22.08-17.92-39.974-40-40H72c-22.08.026-39.974 17.92-40 40v120h-8c-13.255 0-24 10.745-24 24v208c0 13.255 10.745 24 24 24h304a8 8 0 0 0 8-8c-.026-22.08-17.92-39.974-40-40h-24v-48h96v72c0 13.255 10.745 24 24 24h64c13.255 0 24-10.745 24-24V264c0-13.255-10.745-24-24-24zM176 424a8 8 0 0 1-8 8H24a8 8 0 0 1-8-8v-8h160v8zm0-24H16V216a8 8 0 0 1 8-8h144a8 8 0 0 1 8 8v184zm120 16a24.047 24.047 0 0 1 22.632 16H190.528a23.725 23.725 0 0 0 1.472-8v-8h104zm-104-16v-48h16v48h-16zm32 0v-48h32v48h-32zm144-64H192v-48h176v48zm0-72v8H192v-56a23.713 23.713 0 0 0-2.736-10.888c.12-.112.28-.144.392-.264l79.2-79.2a8 8 0 0 0-11.312-11.312l-79.2 79.2c-.192.2-.272.456-.44.664A23.699 23.699 0 0 0 168 192H48V72c0-13.255 10.745-24 24-24h336c13.255 0 24 10.745 24 24v168h-40c-13.255 0-24 10.745-24 24zm96 160a8 8 0 0 1-8 8h-64a8 8 0 0 1-8-8v-8h80v8zm0-24h-80V264a8 8 0 0 1 8-8h64a8 8 0 0 1 8 8v136z" fill="#38b6ff" opacity="1" data-original="#000000" class=""></path><path d="M95.592 289.376a8 8 0 0 0-11.312 0l-33.936 33.936a8 8 0 0 0-.196 11.312 8 8 0 0 0 11.508 0l33.936-33.936c1.428-2.475-1.442-7.18 0-11.312zM143.396 289.376a8.001 8.001 0 0 0-11.116 0l-33.936 33.936a8 8 0 0 0-.196 11.312 8 8 0 0 0 11.508 0l33.936-33.936a8 8 0 0 0-.196-11.312zM317.46 114.344a8.001 8.001 0 0 0-11.116 0l-79.2 79.2a8 8 0 1 0 11.312 11.312l79.2-79.2a8 8 0 0 0-.196-11.312zM440.772 311.032a8 8 0 0 0-11.116 0l-22.624 22.624a8 8 0 0 0-.196 11.312 8 8 0 0 0 11.508 0l22.624-22.624a8 8 0 0 0-.196-11.312zM240.16 304h-.08a8 8 0 0 0 .08 16 8 8 0 0 0 0-16zM256 64h-32a8 8 0 0 0 0 16h32a8 8 0 0 0 0-16z" fill="#38b6ff" opacity="1" data-original="#000000" class=""></path></g></svg>