<svg xmlns="http://www.w3.org/2000/svg" version="1.1" xmlns:xlink="http://www.w3.org/1999/xlink" width="512" height="512" x="0" y="0" viewBox="0 0 682.667 682.667" style="enable-background:new 0 0 512 512" xml:space="preserve" class=""><g><defs><clipPath id="a" clipPathUnits="userSpaceOnUse"><path d="M0 512h512V0H0Z" fill="#38b6ff" opacity="1" data-original="#000000"></path></clipPath></defs><g clip-path="url(#a)" transform="matrix(1.33333 0 0 -1.33333 0 682.667)"><path d="M0 0c21.06 68.65 61.13 110.11 61.13 110.11v47.7l-73.74 60.55 64.89 58.17c17.63 15.81 44.37 15.71 61.88-.23l6.92-6.3c15.98-14.56 40.42-14.56 56.41 0l6.92 6.3c13.69 12.46 33.02 15.24 49.23 8.3" style="stroke-width:15;stroke-linecap:round;stroke-linejoin:round;stroke-miterlimit:10;stroke-dasharray:none;stroke-opacity:1" transform="translate(193.33 202.02)" fill="none" stroke="#38b6ff" stroke-width="15" stroke-linecap="round" stroke-linejoin="round" stroke-miterlimit="10" stroke-dasharray="none" stroke-opacity="" data-original="#000000" class="" opacity="1"></path><path d="m0 0 53.72-48.15-73.741-60.55v-47.7S53.72-232.7 53.72-349.65c0 0-64.18-23.43-161.89-23.43-8.79 0-17.31.19-25.53.54" style="stroke-width:15;stroke-linecap:round;stroke-linejoin:round;stroke-miterlimit:10;stroke-dasharray:none;stroke-opacity:1" transform="translate(450.78 468.53)" fill="none" stroke="#38b6ff" stroke-width="15" stroke-linecap="round" stroke-linejoin="round" stroke-miterlimit="10" stroke-dasharray="none" stroke-opacity="" data-original="#000000" class="" opacity="1"></path><path d="M0 0c5.191-27.68 9.119-60.265 9.68-96.764" style="stroke-width:15;stroke-linecap:round;stroke-linejoin:round;stroke-miterlimit:10;stroke-dasharray:none;stroke-opacity:1" transform="translate(421.015 198.691)" fill="none" stroke="#38b6ff" stroke-width="15" stroke-linecap="round" stroke-linejoin="round" stroke-miterlimit="10" stroke-dasharray="none" stroke-opacity="" data-original="#000000" class="" opacity="1"></path><path d="M0 0c4.13-22 7.46-47.1 8.931-74.8" style="stroke-width:15;stroke-linecap:round;stroke-linejoin:round;stroke-miterlimit:10;stroke-dasharray:none;stroke-opacity:1" transform="translate(456.51 183.087)" fill="none" stroke="#38b6ff" stroke-width="15" stroke-linecap="round" stroke-linejoin="round" stroke-miterlimit="10" stroke-dasharray="none" stroke-opacity="" data-original="#000000" class="" opacity="1"></path><path d="M0 0v46.537" style="stroke-width:15;stroke-linecap:round;stroke-linejoin:round;stroke-miterlimit:10;stroke-dasharray:none;stroke-opacity:1" transform="translate(254.46 359.831)" fill="none" stroke="#38b6ff" stroke-width="15" stroke-linecap="round" stroke-linejoin="round" stroke-miterlimit="10" stroke-dasharray="none" stroke-opacity="" data-original="#000000" class="" opacity="1"></path><path d="M0 0v46.537" style="stroke-width:15;stroke-linecap:round;stroke-linejoin:round;stroke-miterlimit:10;stroke-dasharray:none;stroke-opacity:1" transform="translate(430.764 359.831)" fill="none" stroke="#38b6ff" stroke-width="15" stroke-linecap="round" stroke-linejoin="round" stroke-miterlimit="10" stroke-dasharray="none" stroke-opacity="" data-original="#000000" class="" opacity="1"></path><path d="M0 0a512.674 512.674 0 0 0-176.298 0" style="stroke-width:15;stroke-linecap:round;stroke-linejoin:round;stroke-miterlimit:10;stroke-dasharray:none;stroke-opacity:1" transform="translate(430.764 312.125)" fill="none" stroke="#38b6ff" stroke-width="15" stroke-linecap="round" stroke-linejoin="round" stroke-miterlimit="10" stroke-dasharray="none" stroke-opacity="" data-original="#000000" class="" opacity="1"></path><path d="M0 0c56.5 1.24 112.99.37 169.49-2.58 16.21-.84 29.521-13.14 31.571-29.24 4.939-38.61 4.939-77.22 0-115.83-2.05-16.1-15.361-28.4-31.571-29.25a2295.983 2295.983 0 0 0-239.309 0c-16.21.85-29.521 13.15-31.58 29.25-4.931 38.61-4.931 77.22 0 115.83 2.059 16.1 15.37 28.4 31.58 29.24 13.29.69 26.59 1.27 39.88 1.73" style="stroke-width:15;stroke-linecap:round;stroke-linejoin:round;stroke-miterlimit:10;stroke-dasharray:none;stroke-opacity:1" transform="translate(112.6 201.68)" fill="none" stroke="#38b6ff" stroke-width="15" stroke-linecap="round" stroke-linejoin="round" stroke-miterlimit="10" stroke-dasharray="none" stroke-opacity="" data-original="#000000" class="" opacity="1"></path><path d="M0 0c19.71.52 39.41 1.3 59.12 2.33 16.21.84 29.53 13.13 31.58 29.23 1.1 8.53 1.94 17.06 2.55 25.58" style="stroke-width:15;stroke-linecap:round;stroke-linejoin:round;stroke-miterlimit:10;stroke-dasharray:none;stroke-opacity:1" transform="translate(222.96 87.13)" fill="none" stroke="#38b6ff" stroke-width="15" stroke-linecap="round" stroke-linejoin="round" stroke-miterlimit="10" stroke-dasharray="none" stroke-opacity="" data-original="#000000" class="" opacity="1"></path><path d="M0 0c.63-8.52 1.471-17.05 2.561-25.58 2.049-16.1 15.359-28.39 31.58-29.23a2312.81 2312.81 0 0 1 67.599-2.55" style="stroke-width:15;stroke-linecap:round;stroke-linejoin:round;stroke-miterlimit:10;stroke-dasharray:none;stroke-opacity:1" transform="translate(8.64 144.27)" fill="none" stroke="#38b6ff" stroke-width="15" stroke-linecap="round" stroke-linejoin="round" stroke-miterlimit="10" stroke-dasharray="none" stroke-opacity="" data-original="#000000" class="" opacity="1"></path><path d="M0 0a661.408 661.408 0 0 0-72.322 0c-10.551.577-18.962 8.928-19.811 19.46a269.492 269.492 0 0 0 0 43.367c.849 10.532 9.26 18.883 19.811 19.46a661.408 661.408 0 0 0 72.322 0c10.551-.577 18.962-8.928 19.811-19.46a269.492 269.492 0 0 0 0-43.367C18.962 8.928 10.551.577 0 0Z" style="stroke-width:15;stroke-linecap:round;stroke-linejoin:round;stroke-miterlimit:10;stroke-dasharray:none;stroke-opacity:1" transform="translate(202.82 63.194)" fill="none" stroke="#38b6ff" stroke-width="15" stroke-linecap="round" stroke-linejoin="round" stroke-miterlimit="10" stroke-dasharray="none" stroke-opacity="" data-original="#000000" class="" opacity="1"></path><path d="M0 0c-9.865 0-19.849.234-29.747.697a243.614 243.614 0 0 0 0 29.576c9.898.463 19.882.698 29.747.698 9.863 0 19.847-.235 29.745-.698.599-9.833.599-19.743 0-29.576A638.722 638.722 0 0 0 0 0Z" style="stroke-width:15;stroke-linecap:round;stroke-linejoin:round;stroke-miterlimit:10;stroke-dasharray:none;stroke-opacity:1" transform="translate(166.66 88.852)" fill="none" stroke="#38b6ff" stroke-width="15" stroke-linecap="round" stroke-linejoin="round" stroke-miterlimit="10" stroke-dasharray="none" stroke-opacity="" data-original="#000000" class="" opacity="1"></path><path d="M0 0c-6.742 68.34-212.275 102.595-212.275 173.644 0 71.048 107.845 53.281 92.619-21.571C-134.883 77.221-247.306 52.188-239.306 0" style="stroke-width:15;stroke-linecap:round;stroke-linejoin:round;stroke-miterlimit:10;stroke-dasharray:none;stroke-opacity:1" transform="translate(282.085 199.103)" fill="none" stroke="#38b6ff" stroke-width="15" stroke-linecap="round" stroke-linejoin="round" stroke-miterlimit="10" stroke-dasharray="none" stroke-opacity="" data-original="#000000" class="" opacity="1"></path><path d="M0 0c2.39-11.25 21.12-93.96 55.4-105.97C89.68-93.96 108.42-11.25 110.81 0" style="stroke-width:15;stroke-linecap:round;stroke-linejoin:round;stroke-miterlimit:10;stroke-dasharray:none;stroke-opacity:1" transform="translate(287.21 489.067)" fill="none" stroke="#38b6ff" stroke-width="15" stroke-linecap="round" stroke-linejoin="round" stroke-miterlimit="10" stroke-dasharray="none" stroke-opacity="" data-original="#000000" class="" opacity="1"></path></g></g></svg>