<svg xmlns="http://www.w3.org/2000/svg" version="1.1" xmlns:xlink="http://www.w3.org/1999/xlink" width="512" height="512" x="0" y="0" viewBox="0 0 512 512" style="enable-background:new 0 0 512 512" xml:space="preserve" class=""><g><path d="M72 328a24 24 0 1 0 24 24 24.027 24.027 0 0 0-24-24zm0 32a8 8 0 1 1 8-8 8.009 8.009 0 0 1-8 8zM376 328a24 24 0 1 0 24 24 24.027 24.027 0 0 0-24-24zm0 32a8 8 0 1 1 8-8 8.009 8.009 0 0 1-8 8z" fill="#38b6ff" opacity="1" data-original="#000000" class=""></path><path d="M432 352a56 56 0 0 0-56.954-55.992C344.694 296.515 320 321.987 320 352.79v26.875C298.085 373.7 266.123 368 224 368s-74.085 5.7-96 11.665V352a56 56 0 0 0-58.174-55.958 56.2 56.2 0 0 0-53.784 53.784A56.03 56.03 0 0 0 64 407.439V440a32.036 32.036 0 0 0 32 32v24a8 8 0 0 0 8 8h24a8 8 0 0 0 7.155-4.422L148.944 472h150.112l13.789 27.578A8 8 0 0 0 320 504h24a8 8 0 0 0 8-8v-24a32.036 32.036 0 0 0 32-32v-32.57A56.086 56.086 0 0 0 432 352zM123.056 488H112v-16h19.056zM336 488h-11.056l-8-16H336zm40-96a8 8 0 0 0-8 8v40a16.019 16.019 0 0 1-16 16H96a16.019 16.019 0 0 1-16-16v-40a8 8 0 0 0-8-8 40 40 0 0 1-39.97-41.566 40.127 40.127 0 0 1 38.4-38.4A40 40 0 0 1 112 352v32.6c-12.611 4.4-19.238 8.042-19.922 8.427l7.827 13.955C100.318 406.752 142.193 384 224 384s123.682 22.752 124.078 22.973l7.844-13.946c-.684-.385-7.311-4.031-19.922-8.427v-31.81c0-22.126 17.636-40.422 39.313-40.784A40 40 0 1 1 376 392zM80 240a16.019 16.019 0 0 1 16-16h256a16.019 16.019 0 0 1 16 16v40h16v-40a32.036 32.036 0 0 0-32-32H96a32.036 32.036 0 0 0-32 32v40h16z" fill="#38b6ff" opacity="1" data-original="#000000" class=""></path><path d="M176 256h16v16h-16zM216 296h16v16h-16zM136 296h16v16h-16zM176 336h16v16h-16zM256 256h16v16h-16zM296 296h16v16h-16zM256 336h16v16h-16zM464 8H240a32.036 32.036 0 0 0-32 32v8h16v-8a16.019 16.019 0 0 1 16-16h104v168h16V24h104a16.019 16.019 0 0 1 16 16v400a16.019 16.019 0 0 1-16 16h-72v16h19.056l13.789 27.578A8 8 0 0 0 432 504h24a8 8 0 0 0 8-8v-24a32.036 32.036 0 0 0 32-32V40a32.036 32.036 0 0 0-32-32zm-16 480h-11.056l-8-16H448z" fill="#38b6ff" opacity="1" data-original="#000000" class=""></path><path d="M72 176h72v16h16v-16h72a8 8 0 0 0 7.972-8.665l-8-96A8 8 0 0 0 224 64h-64V48h-16v16H80a8 8 0 0 0-7.972 7.335l-8 96A8 8 0 0 0 72 176zm15.361-96h129.278l6.667 80H80.694z" fill="#38b6ff" opacity="1" data-original="#000000" class=""></path></g></svg>