<svg xmlns="http://www.w3.org/2000/svg" version="1.1" xmlns:xlink="http://www.w3.org/1999/xlink" width="512" height="512" x="0" y="0" viewBox="0 0 128 128" style="enable-background:new 0 0 512 512" xml:space="preserve" class=""><g><path d="M40.5 111a2 2 0 1 0 0 4h.559l-1.508 6.551a2 2 0 1 0 3.899.897L45.163 115h36.675l1.713 7.448a2 2 0 1 0 3.899-.897L85.942 115h.559a2 2 0 0 0 0-4h-1.479l-4.831-21h6.31a2 2 0 0 0 0-4H77.08l6.124-9.952a2 2 0 0 0 .127-1.855l-8.375-19A2 2 0 0 0 73.126 54h-7.43c2.03-10.461 19.77-11.992 19.96-12.006a2 2 0 0 0-.31-3.989 42.798 42.798 0 0 0-6.336 1.084c.744-2.021 1.842-3.305 3.288-3.808 3.408-1.187 8.524 1.59 11.436 3.602-2.44 3.202-7.218 8.394-10.822 8.105a3.187 3.187 0 0 1-1.102-.304 33.675 33.675 0 0 0-4.595 1.354 7.75 7.75 0 0 0 5.376 2.938c.2.015.397.023.596.023 7.204 0 14.19-10.244 14.982-11.442a2 2 0 0 0-.4-2.65c-.985-.807-9.82-7.819-16.778-5.407-3.266 1.133-5.434 4.04-6.444 8.642a1.93 1.93 0 0 0-.02.319 27.866 27.866 0 0 0-6.273 3.222c7.011-19.532 22.01-27.823 22.188-27.919a2 2 0 0 0-1.883-3.53 42.634 42.634 0 0 0-6.926 4.944c-.387-2.55.069-4.502 1.39-5.935 2.992-3.25 9.99-3.456 14.125-3.142-.95 4.43-3.32 11.83-7.396 13.541a4.56 4.56 0 0 1-1.363.33 46.732 46.732 0 0 0-3.875 3.38 10.025 10.025 0 0 0 3.454.655 8.532 8.532 0 0 0 3.337-.679c7.732-3.251 9.947-17.12 10.175-18.69a2 2 0 0 0-1.672-2.263c-.567-.089-13.962-2.092-19.723 4.151-2.471 2.679-3.177 6.326-2.098 10.84a1.954 1.954 0 0 0 .42.792 59.25 59.25 0 0 0-15.025 25.467 59.25 59.25 0 0 0-15.02-25.463 1.875 1.875 0 0 0 .416-.796c1.079-4.514.373-8.161-2.099-10.84-5.76-6.243-19.156-4.24-19.722-4.15a2 2 0 0 0-1.672 2.261c.227 1.571 2.443 15.44 10.175 18.691a8.532 8.532 0 0 0 3.337.68 9.982 9.982 0 0 0 3.356-.623 48.843 48.843 0 0 0-3.886-3.43 4.548 4.548 0 0 1-1.254-.313c-4.077-1.711-6.447-9.11-7.396-13.54 4.135-.313 11.134-.107 14.126 3.14 1.32 1.434 1.775 3.385 1.388 5.936a42.634 42.634 0 0 0-6.925-4.943 2 2 0 0 0-1.886 3.528c.18.096 15.072 8.324 22.116 27.702a28.277 28.277 0 0 0-5.961-3.004 1.93 1.93 0 0 0-.02-.319c-1.01-4.601-3.179-7.51-6.445-8.642-6.961-2.415-15.794 4.6-16.778 5.407a2 2 0 0 0-.4 2.65c.793 1.198 7.778 11.442 14.982 11.442q.297 0 .596-.023a7.75 7.75 0 0 0 5.377-2.939 34.196 34.196 0 0 0-4.601-1.35 3.186 3.186 0 0 1-1.095.301c-3.356.26-7.997-4.339-10.833-8.102 2.903-2.013 8.017-4.794 11.441-3.607 1.448.503 2.548 1.787 3.292 3.81a42.79 42.79 0 0 0-6.336-1.084 2 2 0 0 0-.31 3.989c.181.014 16.398 1.412 19.603 10.671.082.437.15.89.224 1.335h-7.296a2 2 0 0 0-1.83 1.193l-8.376 19a2 2 0 0 0 .127 1.855L49.922 86H40.5a2 2 0 0 0 0 4h6.31l-4.832 21zm8.58-34h6.42a2 2 0 1 0 0-4h-6.932l6.612-15H71.82l6.612 15h-6.932a2 2 0 0 0 0 4h6.42l-5.538 9H54.618zm1.835 13h25.171l4.831 21H46.084z" fill="#38b6ff" opacity="1" data-original="#000000" class=""></path><circle cx="63.501" cy="75" r="2" fill="#38b6ff" opacity="1" data-original="#000000" class=""></circle><path d="M10.757 83.002a8.658 8.658 0 0 0 2.092-.266A45.257 45.257 0 0 1 14.679 100H8.233a3.952 3.952 0 0 0-3.04 1.424 4.007 4.007 0 0 0-.873 3.252C5.318 110.486 8.828 124 19.842 124c11.016 0 14.524-13.514 15.521-19.324a4.005 4.005 0 0 0-.872-3.252 3.954 3.954 0 0 0-3.04-1.424h-6.355a45.178 45.178 0 0 1 1.723-8.267 8.661 8.661 0 0 0 2.108.269 7.972 7.972 0 0 0 7.15-4.54c4.642-8.53 3.579-20.805 3.311-21.929a1.996 1.996 0 0 0-.966-1.282 1.97 1.97 0 0 0-1.592-.148c-1.048.352-11.51 5.887-15.92 14.61a8.916 8.916 0 0 0 2.301 11.188A48.67 48.67 0 0 0 21.08 100h-2.4a48.347 48.347 0 0 0-2.21-19.096 8.917 8.917 0 0 0 2.305-11.19C14.365 60.99 3.902 55.454 2.854 55.102a1.967 1.967 0 0 0-1.59.148 1.996 1.996 0 0 0-.967 1.28c-.268 1.123-1.337 13.391 3.31 21.93a7.972 7.972 0 0 0 7.15 4.54zM19.842 120c-4.69 0-7.585-3.848-9.346-8h18.692c-1.76 4.152-4.656 8-9.346 8zm4.606-39.471c2.647-5.238 8.06-9.301 11.271-11.309.106 3.986-.276 11.087-3.123 16.318A4.147 4.147 0 0 1 26.6 87.4a4.95 4.95 0 0 1-2.151-6.871zM16.417 104H31.45l.001-.006a42.146 42.146 0 0 1-.89 4.006H9.122a42.072 42.072 0 0 1-.888-4h8.178zM3.988 60.243c3.249 2.031 8.616 6.077 11.248 11.286a4.95 4.95 0 0 1-2.152 6.871 4.149 4.149 0 0 1-5.998-1.862c-2.92-5.366-3.2-12.449-3.098-16.295zM109.227 69.713a8.917 8.917 0 0 0 2.3 11.186 48.242 48.242 0 0 0-2.203 19.1h-2.41a48.468 48.468 0 0 0-2.122-10.1 8.917 8.917 0 0 0 2.299-11.186c-4.41-8.723-14.872-14.258-15.92-14.61a1.97 1.97 0 0 0-1.591.148 1.997 1.997 0 0 0-.967 1.282c-.268 1.124-1.331 13.398 3.311 21.928a7.972 7.972 0 0 0 7.15 4.54 8.662 8.662 0 0 0 2.105-.267 45.28 45.28 0 0 1 1.706 8.266H96.55a3.952 3.952 0 0 0-3.04 1.424 4.007 4.007 0 0 0-.873 3.252c.998 5.81 4.508 19.324 15.522 19.324s14.524-13.514 15.521-19.324a4.007 4.007 0 0 0-.873-3.252 3.952 3.952 0 0 0-3.04-1.424h-6.448a44.8 44.8 0 0 1 1.81-17.268 8.662 8.662 0 0 0 2.115.27 7.973 7.973 0 0 0 7.15-4.54c4.642-8.531 3.578-20.805 3.31-21.929a1.996 1.996 0 0 0-.966-1.282 1.972 1.972 0 0 0-1.591-.148c-1.048.352-11.51 5.887-15.92 14.61zM101.402 87.4a4.149 4.149 0 0 1-5.998-1.862c-2.851-5.24-3.23-12.36-3.127-16.313 3.245 2.025 8.637 6.08 11.276 11.304a4.95 4.95 0 0 1-2.151 6.871zm6.757 32.6c-4.69 0-7.585-3.848-9.348-8h18.694c-1.761 4.152-4.657 8-9.346 8zm11.61-16.006a42.109 42.109 0 0 1-.89 4.006H97.436a42.323 42.323 0 0 1-.891-4zm4.267-43.774c.106 3.986-.276 11.087-3.122 16.318a4.148 4.148 0 0 1-5.998 1.862 4.95 4.95 0 0 1-2.152-6.871c2.647-5.238 8.062-9.301 11.272-11.309z" fill="#38b6ff" opacity="1" data-original="#000000" class=""></path></g></svg>