<svg xmlns="http://www.w3.org/2000/svg" version="1.1" xmlns:xlink="http://www.w3.org/1999/xlink" width="512" height="512" x="0" y="0" viewBox="0 0 682.667 682.667" style="enable-background:new 0 0 512 512" xml:space="preserve" class=""><g><defs><clipPath id="a" clipPathUnits="userSpaceOnUse"><path d="M0 512h512V0H0Z" fill="#38b6ff" opacity="1" data-original="#000000"></path></clipPath></defs><g clip-path="url(#a)" transform="matrix(1.33333 0 0 -1.33333 0 682.667)"><path d="M0 0v73.918m0-190.117v80.665M71.618 73.918v-190.117" style="stroke-width:15;stroke-linecap:round;stroke-linejoin:round;stroke-miterlimit:10;stroke-dasharray:none;stroke-opacity:1" transform="translate(221.54 128.199)" fill="none" stroke="#38b6ff" stroke-width="15" stroke-linecap="round" stroke-linejoin="round" stroke-miterlimit="10" stroke-dasharray="none" stroke-opacity="" data-original="#000000" class="" opacity="1"></path><path d="m0 0 252.176 140.538c7.069 3.954 9.629 12.94 5.701 20.005l-15.213 27.277c-3.956 7.066-12.945 9.625-20.014 5.67L-29.555 52.952c-7.04-3.926-9.6-12.911-5.673-19.977L-20.014 5.67C-16.086-1.367-7.069-3.926 0 0Z" style="stroke-width:15;stroke-linecap:round;stroke-linejoin:round;stroke-miterlimit:10;stroke-dasharray:none;stroke-opacity:1" transform="translate(52.647 132.532)" fill="none" stroke="#38b6ff" stroke-width="15" stroke-linecap="round" stroke-linejoin="round" stroke-miterlimit="10" stroke-dasharray="none" stroke-opacity="" data-original="#000000" class="" opacity="1"></path><path d="m0 0 29.526-52.953m-80.781-45.013-29.526 52.952" style="stroke-width:15;stroke-linecap:round;stroke-linejoin:round;stroke-miterlimit:10;stroke-dasharray:none;stroke-opacity:1" transform="translate(189.6 278.274)" fill="none" stroke="#38b6ff" stroke-width="15" stroke-linecap="round" stroke-linejoin="round" stroke-miterlimit="10" stroke-dasharray="none" stroke-opacity="" data-original="#000000" class="" opacity="1"></path><path d="M0 0c-139.687-16.575-91.486 156.706 27.606 63.421" style="stroke-width:15;stroke-linecap:round;stroke-linejoin:round;stroke-miterlimit:10;stroke-dasharray:none;stroke-opacity:1" transform="translate(92.79 224.304)" fill="none" stroke="#38b6ff" stroke-width="15" stroke-linecap="round" stroke-linejoin="round" stroke-miterlimit="10" stroke-dasharray="none" stroke-opacity="" data-original="#000000" class="" opacity="1"></path><path d="M0 0h214.156c5.876 0 10.705-4.827 10.705-10.701v-160.282c0-10.527-8.61-19.134-19.141-19.134H-45.089c-10.53 0-19.14 8.607-19.14 19.134v134.925" style="stroke-width:15;stroke-linecap:round;stroke-linejoin:round;stroke-miterlimit:10;stroke-dasharray:none;stroke-opacity:1" transform="translate(177.033 202.117)" fill="none" stroke="#38b6ff" stroke-width="15" stroke-linecap="round" stroke-linejoin="round" stroke-miterlimit="10" stroke-dasharray="none" stroke-opacity="" data-original="#000000" class="" opacity="1"></path><path d="m0 0 80.781 45.014-10.21 18.291c-5.614 10.09-18.472 13.725-28.537 8.112l-44.128-24.6c-10.094-5.612-13.731-18.436-8.116-28.497Z" style="stroke-width:15;stroke-linecap:round;stroke-linejoin:round;stroke-miterlimit:10;stroke-dasharray:none;stroke-opacity:1" transform="translate(108.818 233.26)" fill="none" stroke="#38b6ff" stroke-width="15" stroke-linecap="round" stroke-linejoin="round" stroke-miterlimit="10" stroke-dasharray="none" stroke-opacity="" data-original="#000000" class="" opacity="1"></path><path d="M0 0c-12.072 4.391-21.352 6.688-37.555 8.462" style="stroke-width:15;stroke-linecap:round;stroke-linejoin:round;stroke-miterlimit:10;stroke-dasharray:none;stroke-opacity:1" transform="translate(96.048 263.444)" fill="none" stroke="#38b6ff" stroke-width="15" stroke-linecap="round" stroke-linejoin="round" stroke-miterlimit="10" stroke-dasharray="none" stroke-opacity="" data-original="#000000" class="" opacity="1"></path><path d="M0 0c-8.785-15.179-13.41-37.715-9.949-68.8m68.477-9.858C115.456-7.095 62.28 39.14 22.748 21.373" style="stroke-width:15;stroke-linecap:round;stroke-linejoin:round;stroke-miterlimit:10;stroke-dasharray:none;stroke-opacity:1" transform="translate(148.002 366.354)" fill="none" stroke="#38b6ff" stroke-width="15" stroke-linecap="round" stroke-linejoin="round" stroke-miterlimit="10" stroke-dasharray="none" stroke-opacity="" data-original="#000000" class="" opacity="1"></path><path d="M0 0c.843 10.643 6.021 26.666 12.538 37.367" style="stroke-width:15;stroke-linecap:round;stroke-linejoin:round;stroke-miterlimit:10;stroke-dasharray:none;stroke-opacity:1" transform="translate(171.506 304.532)" fill="none" stroke="#38b6ff" stroke-width="15" stroke-linecap="round" stroke-linejoin="round" stroke-miterlimit="10" stroke-dasharray="none" stroke-opacity="" data-original="#000000" class="" opacity="1"></path><path d="M0 0s10.356-95.611-24.435-133.326" style="stroke-width:15;stroke-linecap:round;stroke-linejoin:round;stroke-miterlimit:10;stroke-dasharray:none;stroke-opacity:1" transform="translate(371.147 378.45)" fill="none" stroke="#38b6ff" stroke-width="15" stroke-linecap="round" stroke-linejoin="round" stroke-miterlimit="10" stroke-dasharray="none" stroke-opacity="" data-original="#000000" class="" opacity="1"></path><path d="M0 0s15.01 66.125 81.77 82.06" style="stroke-width:15;stroke-linecap:round;stroke-linejoin:round;stroke-miterlimit:10;stroke-dasharray:none;stroke-opacity:1" transform="translate(422.723 349.634)" fill="none" stroke="#38b6ff" stroke-width="15" stroke-linecap="round" stroke-linejoin="round" stroke-miterlimit="10" stroke-dasharray="none" stroke-opacity="" data-original="#000000" class="" opacity="1"></path><path d="m0 0-11.548-19.279c-1.251-2.094-1.426-2.792-4.015-3.431l-22.864-5.671c-4.422-1.105-4.654-2.122-1.629-5.554l14.748-17.738c1.571-1.89 1.804-4.1 1.6-6.775l-1.774-21.926c-.495-4.536.465-5.088 4.712-3.373l20.101 8.375c2.095.872 5.382.872 7.447 0l20.13-8.375c4.247-1.715 5.178-1.163 4.683 3.373l-1.745 21.926c-.203 2.675 0 4.885 1.6 6.775l14.719 17.738c3.025 3.432 2.822 4.449-1.629 5.554L21.672-22.71c-2.589.639-2.735 1.337-4.014 3.431L6.109 0C3.782 3.926 2.356 3.926 0 0Z" style="stroke-width:15;stroke-linecap:round;stroke-linejoin:round;stroke-miterlimit:10;stroke-dasharray:none;stroke-opacity:1" transform="translate(309.623 486.333)" fill="none" stroke="#38b6ff" stroke-width="15" stroke-linecap="round" stroke-linejoin="round" stroke-miterlimit="10" stroke-dasharray="none" stroke-opacity="" data-original="#000000" class="" opacity="1"></path><path d="m0 0-11.578-19.279c-1.251-2.094-1.425-2.792-3.985-3.431l-22.864-5.671c-4.451-1.105-4.683-2.122-1.629-5.554l14.719-17.738c1.6-1.89 1.804-4.1 1.6-6.775l-1.774-21.897c-.466-4.565.465-5.117 4.712-3.402l20.101 8.375c2.094.872 5.381.872 7.476 0l20.1-8.375c4.247-1.715 5.179-1.163 4.713 3.402l-1.775 21.897c-.203 2.675 0 4.885 1.601 6.775l14.719 17.738c3.054 3.432 2.822 4.449-1.629 5.554L21.643-22.71c-2.56.639-2.735 1.337-3.986 3.431L6.109 0C3.752 3.926 2.327 3.926 0 0Z" style="stroke-width:15;stroke-linecap:round;stroke-linejoin:round;stroke-miterlimit:10;stroke-dasharray:none;stroke-opacity:1" transform="translate(456.32 313.925)" fill="none" stroke="#38b6ff" stroke-width="15" stroke-linecap="round" stroke-linejoin="round" stroke-miterlimit="10" stroke-dasharray="none" stroke-opacity="" data-original="#000000" class="" opacity="1"></path><path d="M0 0c16.552 0 30.021 13.464 30.021 29.98 0 16.546-13.469 30.01-30.021 30.01-16.523 0-30.02-13.464-30.02-30.01C-30.02 13.464-16.523 0 0 0Z" style="stroke-width:15;stroke-linecap:round;stroke-linejoin:round;stroke-miterlimit:10;stroke-dasharray:none;stroke-opacity:1" transform="translate(432.002 440.01)" fill="none" stroke="#38b6ff" stroke-width="15" stroke-linecap="round" stroke-linejoin="round" stroke-miterlimit="10" stroke-dasharray="none" stroke-opacity="" data-original="#000000" class="" opacity="1"></path></g></g></svg>