<svg xmlns="http://www.w3.org/2000/svg" version="1.1" xmlns:xlink="http://www.w3.org/1999/xlink" width="512" height="512" x="0" y="0" viewBox="0 0 512 512" style="enable-background:new 0 0 512 512" xml:space="preserve" class=""><g><path d="m145.736 377.191-2.159-10.249a7.5 7.5 0 0 0-8.887-5.794 7.5 7.5 0 0 0-5.794 8.887l2.159 10.248a7.505 7.505 0 0 0 7.333 5.958 7.501 7.501 0 0 0 7.348-9.05zM162.791 458.152l-9.859-46.799a7.501 7.501 0 1 0-14.681 3.092l9.859 46.799a7.505 7.505 0 0 0 7.333 5.958 7.5 7.5 0 0 0 7.348-9.05zM229.913 457.626l-6.405-91.21c-.29-4.133-3.878-7.254-8.009-6.958a7.502 7.502 0 0 0-6.958 8.009l6.405 91.211a7.5 7.5 0 0 0 8.009 6.957 7.501 7.501 0 0 0 6.958-8.009zM298.857 432.981c-4.126-.3-7.719 2.825-8.009 6.958l-1.279 18.214a7.502 7.502 0 0 0 7.491 8.027 7.502 7.502 0 0 0 7.476-6.976l1.279-18.214a7.501 7.501 0 0 0-6.958-8.009zM303.983 359.985c-4.122-.292-7.719 2.825-8.009 6.958l-2.681 38.177a7.502 7.502 0 0 0 14.967 1.051l2.681-38.177a7.502 7.502 0 0 0-6.958-8.009zM377.469 359.601c-4.055-.858-8.033 1.741-8.887 5.794l-19.214 91.21a7.5 7.5 0 0 0 7.348 9.051 7.504 7.504 0 0 0 7.333-5.958l19.214-91.21a7.502 7.502 0 0 0-5.794-8.887z" fill="#38b6ff" opacity="1" data-original="#000000" class=""></path><path d="M481.195 279.919h-38.664v-75.04a20.05 20.05 0 0 0-2.264-9.235l-16.334-31.316c6.539-1.642 11.401-7.552 11.401-14.593v-11.088c0-8.305-6.756-15.062-15.061-15.062H316.389c-8.305 0-15.062 6.757-15.062 15.062v10.977a68.403 68.403 0 0 0-10.921-15.259c-9.423-9.94-14.613-22.957-14.613-36.654v-7.373c2.069-1.847 3.38-4.525 3.38-7.509v-72.75C279.174 4.521 274.653 0 269.096 0h-45.108c-5.557 0-10.078 4.521-10.078 10.078v72.75c0 2.985 1.312 5.662 3.38 7.509v7.373c0 13.697-5.19 26.714-14.613 36.654-12.078 12.739-18.729 29.422-18.729 46.976v61.317l-8.851-51.734a42.942 42.942 0 0 0-20.469-29.75 42.942 42.942 0 0 0-35.924-3.667l-4.652 1.601c-3.458-22.572.641-46.602.693-46.899a7.502 7.502 0 0 0-6.086-8.686 7.5 7.5 0 0 0-8.691 6.086c-.21 1.192-3.756 21.847-1.672 44.21L74.46 84.556a7.503 7.503 0 0 0-14.188 4.882l21.18 61.543c-.457-.825-.921-1.653-1.397-2.487-13.678-23.992-27.644-38.852-41.511-44.168a7.502 7.502 0 0 0-5.371 14.009c16.589 6.36 32.91 34.096 42.428 54.006l-5.306 1.826a42.946 42.946 0 0 0-26.059 24.999 42.946 42.946 0 0 0 2.175 36.046l24.046 44.707H30.804c-8.83 0-16.014 7.184-16.014 16.014v21.151c0 8.83 7.184 16.014 16.014 16.014h17.084l33.351 150.845C84.892 500.463 99.259 512 116.177 512h279.644c16.919 0 31.286-11.537 34.938-28.057l33.352-150.845h17.084c8.83 0 16.014-7.184 16.014-16.014v-21.151c0-8.83-7.184-16.014-16.014-16.014zm-54.231-77.335c.369.706.563 1.499.563 2.296v75.04h-11.884v-51.427c0-5.838-4.75-10.589-10.589-10.589h-73.446c-5.839 0-10.589 4.75-10.589 10.589v51.427h-11.884v-75.04c0-.796.194-1.589.563-2.296l19.708-37.787h77.849l19.709 37.787zm-26.325 30.323v47.012h-64.616v-47.012h64.616zm-84.25-94.317 103.942.058-.038 11.144-.02.001-103.942-.058.058-11.145zm-3.66 25.738-4.193 8.04a68.035 68.035 0 0 0-2.658-11.866 15.044 15.044 0 0 0 6.851 3.826zM228.913 15.004h35.256v62.898h-35.256V15.004zm-15.349 129.684c12.077-12.74 18.729-29.423 18.729-46.977v-4.805h28.496v4.805c0 17.554 6.652 34.238 18.729 46.977 9.423 9.939 14.613 22.956 14.613 36.653v18.797h-57.067c-8.336 0-15.117 6.782-15.117 15.117v64.664h-22.996v-98.578h-.001c0-13.697 5.19-26.714 14.614-36.653zm80.568 70.455v64.777h-57.18v-64.664c0-.063.051-.113.113-.113h57.067zM66.307 240.529l-6.682-12.424a27.963 27.963 0 0 1-1.416-23.472 27.963 27.963 0 0 1 16.968-16.279l48.409-16.66a27.963 27.963 0 0 1 23.392 2.387 27.965 27.965 0 0 1 13.329 19.372l14.793 86.465h-66.133l13.499-4.646a7.501 7.501 0 0 0 4.652-9.535 7.502 7.502 0 0 0-9.535-4.653l-33.936 11.68-10.137-18.847 45.871-15.787a7.501 7.501 0 0 0 4.652-9.535 7.502 7.502 0 0 0-9.535-4.653l-48.191 16.587zm349.802 240.175c-2.121 9.592-10.463 16.292-20.288 16.292H116.177c-9.824 0-18.167-6.7-20.287-16.292L63.254 333.098h385.491l-32.636 147.606zm66.097-163.62a1.013 1.013 0 0 1-1.011 1.01H30.804c-.557 0-1.01-.453-1.01-1.01v-21.151c0-.557.453-1.01 1.01-1.01h450.391c.557 0 1.01.453 1.01 1.01v21.151z" fill="#38b6ff" opacity="1" data-original="#000000" class=""></path></g></svg>