<svg xmlns="http://www.w3.org/2000/svg" version="1.1" xmlns:xlink="http://www.w3.org/1999/xlink" width="512" height="512" x="0" y="0" viewBox="0 0 64 64" style="enable-background:new 0 0 512 512" xml:space="preserve" class=""><g><path d="m62.819 38.427-7-10a1 1 0 0 0-.5-.374l-7.44-2.588a1 1 0 0 0-.024-.98l-2.485-4.142 4.143-2.486a1 1 0 0 0 0-1.714l-4.143-2.486 2.485-4.142A1 1 0 0 0 47 8h-5V4a1 1 0 0 0-1.371-.929l-4.388 1.755-3.534-3.533a1 1 0 0 0-1.414 0l-3.534 3.533-4.388-1.755A1 1 0 0 0 22 4v4h-5a1 1 0 0 0-.857 1.515l2.485 4.142-4.143 2.486a1 1 0 0 0 0 1.714l4.143 2.486-2.485 4.142a1 1 0 0 0-.024.98l-7.442 2.589a1 1 0 0 0-.5.373l-7 10a1 1 0 0 0 .491 1.517L8 42.145V55a1 1 0 0 0 .709.957l23 7a1.006 1.006 0 0 0 .582 0l23-7A1 1 0 0 0 56 55V42.145l6.328-2.2a1 1 0 0 0 .491-1.517ZM32 34.954l-19.774-6.018L20.667 26H22v4a1 1 0 0 0 1.371.929l4.388-1.755 3.534 3.533a1 1 0 0 0 1.414 0l3.534-3.533 4.388 1.755A1 1 0 0 0 42 30v-4h1.333l8.441 2.936ZM16.943 17l3.572-2.143a1 1 0 0 0 .342-1.372L18.767 10H23a1 1 0 0 0 1-1V5.477l3.629 1.452a1 1 0 0 0 1.078-.222L32 3.414l3.293 3.293a1 1 0 0 0 1.078.222L40 5.477V9a1 1 0 0 0 1 1h4.233l-2.09 3.485a1 1 0 0 0 .342 1.372L47.057 17l-3.572 2.143a1 1 0 0 0-.342 1.372L45.233 24H41a1 1 0 0 0-1 1v3.523l-3.629-1.452a1 1 0 0 0-1.078.222L32 30.586l-3.293-3.293a1 1 0 0 0-1.078-.222L24 28.523V25a1 1 0 0 0-1-1h-4.233l2.09-3.485a1 1 0 0 0-.342-1.372ZM9.4 30.168l21.05 6.405-5.869 9.227-21-7.306Zm.6 12.673 14.672 5.1A.983.983 0 0 0 25 48a1 1 0 0 0 .844-.463L31 39.434v21.217l-21-6.392Zm44 11.418-21 6.392V39.434l5.156 8.1A1 1 0 0 0 39 48a.983.983 0 0 0 .328-.056L54 42.841ZM39.419 45.8l-5.869-9.227 21.05-6.405 5.825 8.322Z" fill="#38b6ff" opacity="1" data-original="#000000" class=""></path><path d="m24 16.3 2.168 3.252A1 1 0 0 0 28 19v-7h-2v3.7l-2.168-3.252A1 1 0 0 0 22 13v7h2ZM30 20h3v-2h-2v-1h1v-2h-1v-1h2v-2h-3a1 1 0 0 0-1 1v6a1 1 0 0 0 1 1ZM35 20h6a1 1 0 0 0 1-1v-7h-2v6h-1v-3h-2v3h-1v-6h-2v7a1 1 0 0 0 1 1Z" fill="#38b6ff" opacity="1" data-original="#000000" class=""></path></g></svg>