<svg xmlns="http://www.w3.org/2000/svg" version="1.1" xmlns:xlink="http://www.w3.org/1999/xlink" width="512" height="512" x="0" y="0" viewBox="0 0 256 256" style="enable-background:new 0 0 512 512" xml:space="preserve" class=""><g><path d="M70.957 260.955a5.029 5.029 0 0 1-1.189-.143c-51.559-12.629-58.061-53.032-58.313-54.745a5.046 5.046 0 0 1-.053-.726V142.8a5 5 0 0 1 5-5c30.415 0 50.847-19.66 51.049-19.858a5.009 5.009 0 0 1 7.019.007c.2.191 20.627 19.851 51.042 19.851a5 5 0 0 1 5 5v42a5 5 0 1 1-10 0v-37.15c-24.591-1.5-42.356-13.663-49.555-19.505-7.2 5.842-24.964 18.008-49.555 19.505v57.282c.671 3.7 7.557 35.036 49.555 45.873a83.082 83.082 0 0 0 19.68-7.72 5 5 0 0 1 4.869 8.734 93.78 93.78 0 0 1-23.36 9 5.029 5.029 0 0 1-1.189.136z" fill="#38b6ff" opacity="1" data-original="#000000" class=""></path><path d="M121.089 237.957a5 5 0 0 1-3.536-1.465l-8.392-8.392a5 5 0 1 1 7.072-7.071l4.856 4.857 15.2-15.2a5 5 0 0 1 7.07 7.07l-18.739 18.739a4.993 4.993 0 0 1-3.531 1.462z" fill="#38b6ff" opacity="1" data-original="#000000" class=""></path><path d="M126.263 257.808a32.87 32.87 0 1 1 32.869-32.87 32.906 32.906 0 0 1-32.869 32.87zm0-55.739a22.87 22.87 0 1 0 22.869 22.869 22.894 22.894 0 0 0-22.869-22.869zM70.957 193.729c-8.263 0-14.985-6.375-14.985-14.211s6.722-14.211 14.985-14.211a15.359 15.359 0 0 1 11.992 5.682 5 5 0 1 1-7.842 6.207 5.283 5.283 0 0 0-4.15-1.889c-2.749 0-4.985 1.888-4.985 4.211s2.236 4.211 4.985 4.211a5 5 0 1 1 0 10z" fill="#38b6ff" opacity="1" data-original="#000000" class=""></path><path d="M70.957 212.151a15.355 15.355 0 0 1-11.991-5.683 5 5 0 1 1 7.842-6.2 5.283 5.283 0 0 0 4.149 1.888c2.749 0 4.985-1.888 4.985-4.211s-2.236-4.211-4.985-4.211a5 5 0 0 1 0-10c8.263 0 14.985 6.375 14.985 14.211s-6.722 14.206-14.985 14.206z" fill="#38b6ff" opacity="1" data-original="#000000" class=""></path><path d="M70.957 219.843a5 5 0 0 1-5-5v-7.692a5 5 0 0 1 10 0v7.692a5 5 0 0 1-5 5zM70.957 175.307a5 5 0 0 1-5-5v-7.692a5 5 0 0 1 10 0v7.692a5 5 0 0 1-5 5zM224.741 260.955a30.941 30.941 0 0 1-30.906-30.906V77.9H46.35v41.943a5 5 0 0 1-10 0V72.9a5 5 0 0 1 5-5h209.3a5 5 0 0 1 5 5v157.149a30.941 30.941 0 0 1-30.909 30.906zM203.835 77.9v152.149a20.907 20.907 0 0 0 41.813 0V77.9z" fill="#38b6ff" opacity="1" data-original="#000000" class=""></path><path d="M224.741 260.955h-64.157a5 5 0 0 1 0-10h64.157a5 5 0 0 1 0 10zM166.564 99.947a5 5 0 0 1-5-5V56.428a41.473 41.473 0 1 0-82.945 0v38.519a5 5 0 0 1-10 0V56.428a51.473 51.473 0 1 1 102.945 0v38.519a5 5 0 0 1-5 5z" fill="#38b6ff" opacity="1" data-original="#000000" class=""></path><path d="M213.038 77.9a5 5 0 0 1-5-5V56.428a41.512 41.512 0 0 0-51.932-40.144 5 5 0 1 1-2.513-9.679 51.512 51.512 0 0 1 64.445 49.823V72.9a5 5 0 0 1-5 5zM120.092 77.9a5 5 0 0 1-5-5V56.428A51.07 51.07 0 0 1 130.705 19.5a5 5 0 0 1 6.967 7.173 41.151 41.151 0 0 0-12.58 29.753V72.9a5 5 0 0 1-5 5zM224.741 234.808a5 5 0 0 1-5-5V94.947a5 5 0 1 1 10 0v134.861a5 5 0 0 1-5 5z" fill="#38b6ff" opacity="1" data-original="#000000" class=""></path></g></svg>