<svg xmlns="http://www.w3.org/2000/svg" version="1.1" xmlns:xlink="http://www.w3.org/1999/xlink" width="512" height="512" x="0" y="0" viewBox="0 0 64 64" style="enable-background:new 0 0 512 512" xml:space="preserve" class=""><g><path d="M31.977 26.424c2.2-.015 4.129 1.22 4.12 2.68.021 1.315 1.98 1.312 2 0 0-2.32-2.21-4.245-5.097-4.613v-1.538c-.02-1.308-1.977-1.32-2 0v1.538c-2.887.368-5.097 2.293-5.097 4.613 0 2.581 2.735 4.681 6.097 4.681 2.22 0 4.097 1.228 4.097 2.681-.22 3.532-7.974 3.534-8.194 0-.021-1.315-1.98-1.312-2 0 0 2.32 2.21 4.245 5.097 4.613v1.538c.02 1.308 1.977 1.32 2 0V41.08c2.887-.368 5.097-2.293 5.097-4.613 0-2.58-2.735-4.68-6.097-4.68-5.393-.16-5.424-5.18-.024-5.362z" fill="#38b6ff" opacity="1" data-original="#000000" class=""></path><path d="M57.003 25.555c-.026-.04-.004-9.302-.01-9.352 0-4.338-5.712-7.934-13.436-8.568V4a1 1 0 0 0-1.666-.746l-9.834 8.796c-.44.378-.442 1.114 0 1.492l9.834 8.78c.606.579 1.694.092 1.666-.745v-2.585c6.395.574 11.435 3.414 11.435 6.56.022 1.457-1.085 2.88-2.993 4.058a19.984 19.984 0 0 0-2.817-8.134c-.711-1.108-2.373-.082-1.703 1.048 6.697 10.57.178 25.29-12.216 27.333-1.215.14-1.124 1.99.127 1.993 9.756-1.595 16.874-10.16 16.768-20.042 3.078-1.608 4.845-3.855 4.845-6.253zm-2.01-4.25c-2.463-2.417-6.987-4.117-12.387-4.384-.553-.04-1.061.444-1.049.999v1.423l-7.333-6.548 7.333-6.56v2.336a1 1 0 0 0 .95.998c6.885.342 12.485 3.317 12.485 6.634zM22.109 41.677c-.607-.578-1.693-.091-1.666.746v2.585c-6.395-.574-11.435-3.414-11.435-6.56-.019-1.455 1.087-2.876 2.994-4.054a20.036 20.036 0 0 0 2.768 8.05c.63 1.22 2.445.23 1.752-.968-6.706-10.595-.16-25.338 12.263-27.342a1 1 0 0 0 .81-1.159.996.996 0 0 0-1.16-.81c-9.68 1.713-16.697 10.18-16.593 20.032-3.087 1.62-4.892 3.88-4.834 6.308v9.292c0 4.338 5.71 7.934 13.435 8.568V60c-.028.833 1.058 1.329 1.666.746l9.834-8.796a1 1 0 0 0 0-1.492l-9.834-8.78zm.334 16.087V55.43a1 1 0 0 0-.95-.998c-6.885-.342-12.485-3.317-12.485-6.634v-5.103c2.462 2.418 6.986 4.118 12.386 4.385.55.046 1.062-.446 1.049-.999v-1.423l7.333 6.548z" fill="#38b6ff" opacity="1" data-original="#000000" class=""></path><path d="M32.749 15.858c-12.071-.775-20.788 12.638-15.203 23.35.598 1.164 2.366.278 1.788-.896C14.578 29.17 21.686 17.666 32 17.84c.227 0 .447.008.732.02a.985.985 0 0 0 1.008-.964c.02-.551-.44-1.017-.991-1.038zM32 46.15c-.769-.069-1.721-.045-1.779.94-.023 1.005.997 1.112 1.779 1.06 11.776.198 19.885-12.926 14.454-23.357-.59-1.162-2.367-.283-1.788.895C49.42 34.828 42.316 46.323 32 46.15z" fill="#38b6ff" opacity="1" data-original="#000000" class=""></path></g></svg>