<svg xmlns="http://www.w3.org/2000/svg" version="1.1" xmlns:xlink="http://www.w3.org/1999/xlink" width="512" height="512" x="0" y="0" viewBox="0 0 60 60" style="enable-background:new 0 0 512 512" xml:space="preserve" class=""><g><path d="M34.718 11.9a11.011 11.011 0 0 1-5.51 2.088 10.85 10.85 0 0 0-1.942-4.049c-1.392-1.881-3.812-2.828-6.807-2.633a2.819 2.819 0 0 0-2.641 2.631l-.949 12.009-8.425 20.288-6.054 5.179a6.865 6.865 0 0 0-1.055 9.253l1.253 1.689A3.95 3.95 0 0 0 5.4 59.932c.466.042 1.007.07 1.613.07a21.544 21.544 0 0 0 12.872-4.439l33.581-24.831c1.566-1.159 5.325-4.264 6.408-8.057v-.006a3.224 3.224 0 0 0-1.362-3.632 9.278 9.278 0 0 1-3.287-3.917A41.755 41.755 0 0 0 43.057.779a4.06 4.06 0 0 0-4.714-.011 3.929 3.929 0 0 0-1.558 3.6c.229 2.07.263 5.81-2.067 7.532zm-14.906-1.8a.825.825 0 0 1 .769-.793c1.625-.094 3.827.136 5.076 1.826a9.361 9.361 0 0 1 1.511 2.919 15.429 15.429 0 0 1-1.659-.164 6.508 6.508 0 0 0-1.064-.091 6.254 6.254 0 0 0-3.735 1.22 6.353 6.353 0 0 0-1.4 1.463zm-6.733 26.19 5.465-1.561A1 1 0 0 0 18 32.806l-3.94 1.123 1.026-2.47 4.85-1.383a1 1 0 0 0-.549-1.924l-3.321.947 1.025-2.467 4.236-1.209a1 1 0 1 0-.549-1.924l-2.707.773L19.1 21.8l3.621-1.031a1 1 0 0 0-.547-1.924l-2.094.6.43-1.036a4.23 4.23 0 0 1 1.39-1.789 4.275 4.275 0 0 1 2.545-.826 4.658 4.658 0 0 1 .746.065 16.576 16.576 0 0 0 2.443.2l-6.446 18.474a5.811 5.811 0 0 1-3.164 3.411l-6.872 2.987zm18.5 8.141-12.885 9.524A19.167 19.167 0 0 1 5.58 57.939a1.924 1.924 0 0 1-1.387-.775l-.524-.707a12.647 12.647 0 0 0 1.267.064c2.73 0 6.636-.852 11.282-4.288a39.5 39.5 0 0 0 7.282-6.988 35.489 35.489 0 0 1 9.519-8.325 27.768 27.768 0 0 0-1.443 7.511zm2.1-1.554a25.956 25.956 0 0 1 14.05-20.322c0 .01.005.021.009.031l3.132 7.58zm23.8-22.129a1.219 1.219 0 0 1 .47 1.382c-.617 2.156-2.641 4.681-5.428 6.8l-2.936-7.108a2.892 2.892 0 0 1 .95-3.425l2.982-2.205a11.019 11.019 0 0 0 3.962 4.556zM38.773 4.143a1.9 1.9 0 0 1 .748-1.759 2.028 2.028 0 0 1 2.339 0A40.511 40.511 0 0 1 52.583 14.4l-3.237 2.394a4.864 4.864 0 0 0-1.958 3.688 28.228 28.228 0 0 0-13.155 13.39C27.1 37.946 24.491 41 21.978 43.947a37.857 37.857 0 0 1-6.95 6.679c-6.437 4.759-11.175 4-12.751 3.53a4.85 4.85 0 0 1 1.414-5.224L9.82 43.69l9-3.912a7.824 7.824 0 0 0 4.255-4.588L29.8 15.93a13 13 0 0 0 6.109-2.42c3.132-2.32 3.139-6.864 2.864-9.367z" fill="#38b6ff" opacity="1" data-original="#000000" class=""></path><path d="M41.425 30.029a1 1 0 0 0-.814 1.158l.374 2.139a1 1 0 0 0 .985.828 1.141 1.141 0 0 0 .173-.014 1 1 0 0 0 .813-1.158l-.374-2.139a1.006 1.006 0 0 0-1.157-.814zM45.33 27.142a1 1 0 0 0-.813 1.157l.373 2.139a1 1 0 0 0 .984.829 1.028 1.028 0 0 0 .173-.015 1 1 0 0 0 .813-1.152l-.373-2.14a.994.994 0 0 0-1.157-.818z" fill="#38b6ff" opacity="1" data-original="#000000" class=""></path></g></svg>