<svg xmlns="http://www.w3.org/2000/svg" version="1.1" xmlns:xlink="http://www.w3.org/1999/xlink" width="512" height="512" x="0" y="0" viewBox="0 0 512 512" style="enable-background:new 0 0 512 512" xml:space="preserve" class=""><g><path d="M200.469 354.011c-10.884 0-21.767-4.143-30.052-12.428-16.57-16.571-16.57-43.533-.001-60.104 8.027-8.027 18.7-12.448 30.053-12.448 4.143 0 7.5 3.358 7.5 7.5s-3.357 7.5-7.5 7.5c-7.346 0-14.252 2.86-19.445 8.055-10.723 10.722-10.723 28.169 0 38.891 10.723 10.723 28.169 10.722 38.892 0a27.442 27.442 0 0 0 7.278-12.939c.944-3.9-.373-8.162-3.439-11.122-2.261-2.185-5.911-2.153-8.135.071l-9.847 9.848a7.498 7.498 0 0 1-10.606 0 7.498 7.498 0 0 1-.001-10.606l9.848-9.848c7.973-7.971 21.054-8.083 29.161-.254 6.878 6.641 9.79 16.391 7.598 25.443a42.452 42.452 0 0 1-11.25 20.015c-8.288 8.284-19.17 12.426-30.054 12.426zM269.222 296.662a14.953 14.953 0 0 1-10.607-4.386l-44.194-44.194a7.5 7.5 0 0 1 10.607-10.606l44.194 44.194 8.131-8.132a7.5 7.5 0 0 1 10.607 10.606l-8.132 8.132a14.956 14.956 0 0 1-10.606 4.386zM303.162 258.574c-6.401 0-12.804-2.437-17.678-7.311l-37.123-37.123a7.5 7.5 0 0 1 10.607-10.606l37.123 37.123c3.899 3.9 10.244 3.899 14.142 0 3.899-3.899 3.899-10.243 0-14.142l-37.123-37.124a7.5 7.5 0 0 1 10.607-10.606l37.123 37.124c9.747 9.748 9.747 25.607 0 35.355-4.873 4.874-11.276 7.31-17.678 7.31zM374.934 186.563a7.498 7.498 0 0 0-10.606 0l-11.667 11.667-14.143-14.143 10.152-10.152a7.5 7.5 0 1 0-10.605-10.606l-10.153 10.152-14.142-14.141 11.667-11.667a7.498 7.498 0 0 0-.001-10.606 7.498 7.498 0 0 0-10.606 0l-11.667 11.667c-2.833 2.833-4.393 6.6-4.393 10.606s1.56 7.773 4.393 10.606l38.892 38.892c2.925 2.923 6.765 4.385 10.606 4.385s7.683-1.462 10.607-4.386l11.667-11.667a7.501 7.501 0 0 0-.001-10.607zM481 506h-35c-13.785 0-25-11.215-25-25s11.215-25 25-25h35c13.785 0 25 11.215 25 25s-11.215 25-25 25zm-35-35c-5.514 0-10 4.486-10 10s4.486 10 10 10h35c5.514 0 10-4.486 10-10s-4.486-10-10-10z" fill="#38b6ff" opacity="1" data-original="#000000" class=""></path><path d="M498.678 112.317 486.3 99.938l-86.617-86.617c-9.747-9.746-25.606-9.748-35.355 0L314.829 62.82c-4.811 4.811-7.242 11.112-7.304 17.432-6.59.06-12.778 2.65-17.444 7.317L142.793 234.857a7.5 7.5 0 0 0 5.304 12.803 7.478 7.478 0 0 0 5.304-2.197L300.688 98.175c1.889-1.889 4.399-2.929 7.07-2.929s5.182 1.041 7.07 2.929l56.698 56.698a7.5 7.5 0 0 0 10.607-10.606l-56.698-56.698c-3.899-3.899-3.899-10.244 0-14.143l49.498-49.498c3.899-3.899 10.244-3.897 14.142 0L396.147 31l-31.82 31.82c-9.746 9.748-9.746 25.608 0 35.355 4.874 4.874 11.275 7.311 17.678 7.31 6.401 0 12.805-2.437 17.679-7.31l31.819-31.82 14.141 14.142-31.82 31.82c-9.747 9.748-9.747 25.607 0 35.355 4.722 4.722 11 7.323 17.678 7.323 6.679 0 12.957-2.601 17.679-7.323L481 115.853l7.071 7.071a9.932 9.932 0 0 1 2.929 7.071 9.93 9.93 0 0 1-2.93 7.071l-49.497 49.498a9.932 9.932 0 0 1-7.07 2.929 9.935 9.935 0 0 1-7.071-2.929l-17.504-17.504a7.5 7.5 0 0 0-10.607 10.606l17.504 17.504c3.899 3.899 3.899 10.244 0 14.143L219.37 405.767a9.932 9.932 0 0 1-7.071 2.929 9.934 9.934 0 0 1-7.07-2.929l-98.995-98.995c-1.889-1.889-2.93-4.4-2.93-7.071s1.041-5.183 2.93-7.071l22.431-22.431a7.5 7.5 0 0 0-10.607-10.606l-22.431 22.431c-7.9 7.901-9.395 19.816-4.489 29.238l-72.689 72.69c-16.569 16.571-16.569 43.533 0 60.104l49.498 49.497C75.973 501.579 86.646 506 97.998 506H376c13.785 0 25-11.215 25-25s-11.215-25-25-25h-35c-4.143 0-7.5 3.358-7.5 7.5s3.357 7.5 7.5 7.5h35c5.514 0 10 4.486 10 10s-4.486 10-10 10H130.602l20-20H306c4.143 0 7.5-3.358 7.5-7.5s-3.357-7.5-7.5-7.5H165.602l35.131-35.132a24.88 24.88 0 0 0 11.565 2.827c6.679 0 12.957-2.601 17.679-7.323l194.454-194.454c4.811-4.811 7.242-11.112 7.304-17.432 6.591-.06 12.779-2.65 17.445-7.317l49.496-49.497c4.723-4.722 7.323-11 7.323-17.678.001-6.677-2.6-12.955-7.321-17.677zM389.077 87.568c-3.899 3.899-10.243 3.899-14.143 0s-3.899-10.244 0-14.143l31.82-31.82 14.142 14.142zm49.496 49.498a9.932 9.932 0 0 1-7.071 2.929 9.934 9.934 0 0 1-7.07-2.929c-3.899-3.899-3.899-10.243 0-14.142l31.82-31.82 14.142 14.142zM117.442 482.945c-5.193 5.194-12.1 8.055-19.444 8.055-7.346 0-14.252-2.861-19.445-8.055l-49.498-49.497c-10.723-10.722-10.723-28.169 0-38.891l47.127-47.126 88.388 88.388zm57.735-57.733-88.389-88.388 14.142-14.142 88.388 88.388z" fill="#38b6ff" opacity="1" data-original="#000000" class=""></path></g></svg>