<svg xmlns="http://www.w3.org/2000/svg" version="1.1" xmlns:xlink="http://www.w3.org/1999/xlink" width="512" height="512" x="0" y="0" viewBox="0 0 64 64" style="enable-background:new 0 0 512 512" xml:space="preserve" class=""><g><path d="M14.398 1.083c-6.776.704-12.353 6.12-13.261 12.879a15.09 15.09 0 0 0 .08 4.572C2.4 25.387 3 32.218 3 38.837V49c0 7.72 6.28 14 14 14s14-6.28 14-14V16a15.03 15.03 0 0 0-4.96-11.145c-3.194-2.88-7.327-4.214-11.642-3.772zM29 49c0 6.617-5.383 12-12 12S5 55.617 5 49V38.837c0-6.733-.609-13.679-1.812-20.643a13.078 13.078 0 0 1-.068-3.967C3.906 8.374 8.736 3.683 14.605 3.073c3.744-.394 7.327.772 10.096 3.268A13.025 13.025 0 0 1 29 16zM62.863 13.962c-.908-6.759-6.485-12.175-13.261-12.879-4.31-.451-8.447.892-11.642 3.772A15.03 15.03 0 0 0 33 16v33c0 7.72 6.28 14 14 14s14-6.28 14-14V38.837c0-6.619.6-13.45 1.783-20.303a15.09 15.09 0 0 0 .08-4.572zm-2.051 4.232C59.609 25.158 59 32.104 59 38.837V49c0 6.617-5.383 12-12 12s-12-5.383-12-12V16c0-3.676 1.567-7.196 4.299-9.659a12.858 12.858 0 0 1 8.685-3.342c.467 0 .938.024 1.411.074 5.869.609 10.699 5.301 11.486 11.154a13.077 13.077 0 0 1-.069 3.967z" fill="#38b6ff" opacity="1" data-original="#000000" class=""></path><path d="m22.913 55.785 1.316 1.506a10.979 10.979 0 0 0 1.501-1.6l-1.586-1.217a9.085 9.085 0 0 1-1.231 1.311zM25.091 52.947l1.797.877c.322-.658.578-1.352.762-2.06l-1.936-.502a9.068 9.068 0 0 1-.623 1.685zM26 49c0 .163-.004.326-.013.486l1.996.109c.011-.197.017-.395.017-.595v-1.459h-2zM11.893 58.744c.649.342 1.335.618 2.039.822l.557-1.922a8.909 8.909 0 0 1-1.664-.67zM26 43.541h2v2h-2zM16.256 57.969l-.164 1.994a11.065 11.065 0 0 0 2.194-.038l-.232-1.986c-.601.07-1.21.08-1.798.03zM19.807 57.554l.625 1.9a11.072 11.072 0 0 0 2.008-.892l-.99-1.738a9.053 9.053 0 0 1-1.643.73zM26 35.541h2v2h-2zM26 23.541h2v2h-2zM26 19.541h2v2h-2zM25.753 13.783l1.951-.441a11.974 11.974 0 0 0-.674-2.073l-1.838.789c.24.557.428 1.138.561 1.725zM26 27.541h2v2h-2zM10.049 54.717l-1.543 1.271c.464.563.987 1.084 1.555 1.547l1.264-1.551a9.042 9.042 0 0 1-1.276-1.267zM26 39.541h2v2h-2zM26 31.541h2v2h-2zM14.84 6.065l.089-.01-.199-1.99-.13.015c-.722.082-1.44.232-2.137.448l.592 1.91a9.841 9.841 0 0 1 1.785-.373zM6.518 19.798l-1.973.328c.108.65.208 1.302.301 1.953l1.98-.281a91.137 91.137 0 0 0-.308-2zM8.522 9.359 7.03 8.027a12.173 12.173 0 0 0-1.297 1.748l1.707 1.043c.316-.517.68-1.007 1.082-1.459zM6 16.003H4c0 .732.066 1.463.198 2.172l1.967-.365A9.956 9.956 0 0 1 6 16.003zM11.377 7.131l-.93-1.771c-.639.335-1.255.733-1.828 1.18l1.23 1.576c.48-.374.994-.705 1.528-.985zM6.642 12.444l-1.869-.711a11.66 11.66 0 0 0-.581 2.105l1.969.348a9.668 9.668 0 0 1 .481-1.742zM22.977 6.234a12.084 12.084 0 0 0-1.879-1.103l-.852 1.811a9.922 9.922 0 0 1 1.566.919zM19.049 4.392a11.819 11.819 0 0 0-2.149-.358l-.146 1.994c.603.045 1.204.145 1.788.298zM8.37 51.562l-1.918.568c.209.702.489 1.387.835 2.034l1.764-.941a8.963 8.963 0 0 1-.681-1.661zM23.188 9.048c.421.436.805.911 1.14 1.414l1.664-1.109a12.01 12.01 0 0 0-1.366-1.695zM6 41.887h2v-.313c.001-.564-.001-1.129-.005-1.693l-2 .014c.004.557.006 1.116.005 1.676zM6 43.887h2v2H6zM8 49v-1.113H6V49c0 .327.014.65.042.972l1.992-.174A9.568 9.568 0 0 1 8 49zM7.931 35.861l-2 .053c.018.662.031 1.325.041 1.987l2-.029c-.01-.67-.024-1.341-.041-2.011zM7.092 23.801l-1.986.24c.08.655.153 1.312.22 1.969l1.99-.201a122 122 0 0 0-.224-2.008zM7.501 27.815l-1.992.168c.055.658.104 1.317.147 1.977l1.996-.133c-.045-.671-.094-1.342-.151-2.012zM7.773 31.838l-1.998.105c.035.66.065 1.321.09 1.982l1.998-.074c-.024-.67-.054-1.341-.09-2.013zM26 16v1.541h2V16c0-.168-.003-.335-.011-.504l-1.998.09c.006.138.009.275.009.414zM17 52c0 1.654 1.346 3 3 3s3-1.346 3-3-1.346-3-3-3-3 1.346-3 3zm4 0a1 1 0 1 1-2 0 1 1 0 0 1 2 0zM13 38c-1.654 0-3 1.346-3 3s1.346 3 3 3 3-1.346 3-3-1.346-3-3-3zm0 4a1 1 0 1 1 0-2 1 1 0 0 1 0 2zM24 33c0-1.654-1.346-3-3-3s-3 1.346-3 3 1.346 3 3 3 3-1.346 3-3zm-3 1a1 1 0 1 1 0-2 1 1 0 0 1 0 2zM19 17c2.206 0 4-1.794 4-4s-1.794-4-4-4-4 1.794-4 4 1.794 4 4 4zm0-6c1.103 0 2 .897 2 2s-.897 2-2 2-2-.897-2-2 .897-2 2-2zM57.174 21.798l1.98.281c.093-.651.192-1.303.301-1.953l-1.973-.328c-.11.666-.213 1.333-.308 2zM36 27.541h2v2h-2zM38.286 51.263l-1.936.502c.184.708.439 1.401.762 2.06l1.797-.877a9.121 9.121 0 0 1-.623-1.685zM39.855 54.475l-1.586 1.217c.444.58.949 1.118 1.501 1.6l1.316-1.506a9.305 9.305 0 0 1-1.231-1.311zM36 43.541h2v2h-2zM36 31.541h2v2h-2zM36 35.541h2v2h-2zM36 39.541h2v2h-2zM41.561 58.562a11.11 11.11 0 0 0 2.008.892l.625-1.9a9.119 9.119 0 0 1-1.643-.729zM56 43.887h2v2h-2zM56 49c0 .269-.012.535-.034.798l1.992.174c.028-.322.042-.645.042-.972v-1.113h-2zM54.949 53.224l1.764.941c.346-.647.626-1.332.835-2.034l-1.918-.568a9.02 9.02 0 0 1-.681 1.661zM45.946 57.938l-.232 1.986a10.85 10.85 0 0 0 2.194.039l-.164-1.994a9.025 9.025 0 0 1-1.798-.031zM56.028 37.872l2 .029c.01-.662.023-1.325.041-1.987l-2-.053c-.017.67-.031 1.341-.041 2.011zM52.676 55.984l1.264 1.551a11.145 11.145 0 0 0 1.555-1.547l-1.543-1.271a9.15 9.15 0 0 1-1.276 1.267zM49.512 57.645l.557 1.922c.704-.204 1.39-.48 2.039-.822l-.932-1.77c-.53.278-1.09.504-1.664.67zM38 49v-1.459h-2V49c0 .2.006.398.017.596l1.996-.109A8.743 8.743 0 0 1 38 49zM43.754 6.942l-.852-1.811c-.656.309-1.288.68-1.879 1.103l1.164 1.627c.494-.353 1.02-.662 1.567-.919zM36 23.541h2v2h-2zM56.685 25.809l1.99.201a93.3 93.3 0 0 1 .22-1.969l-1.986-.24c-.081.669-.156 1.337-.224 2.008zM56 41.571v.315h2v-.317c-.001-.559.001-1.117.005-1.676l-2-.014A191.2 191.2 0 0 0 56 41.571zM51.537 4.528a11.684 11.684 0 0 0-2.123-.447l-.144-.016-.097 2.001a9.668 9.668 0 0 1 1.771.372zM55.381 6.54a12.207 12.207 0 0 0-1.828-1.181l-.93 1.771c.534.28 1.048.611 1.527.985zM56.348 29.827l1.996.133c.043-.659.093-1.318.147-1.977l-1.992-.168c-.057.67-.106 1.341-.151 2.012zM58.267 9.775a12.098 12.098 0 0 0-1.297-1.748l-1.492 1.332c.402.451.767.941 1.082 1.459zM47.247 6.027l-.146-1.994a11.98 11.98 0 0 0-2.149.358l.508 1.934a9.998 9.998 0 0 1 1.787-.298zM38 16c0-.139.003-.276.009-.414l-1.998-.09c-.008.169-.011.336-.011.504v1.541h2zM38.808 12.058l-1.838-.789c-.287.67-.515 1.368-.674 2.073l1.951.441a9.899 9.899 0 0 1 .561-1.725zM36 19.541h2v2h-2zM57.835 17.81l1.967.365c.132-.709.198-1.44.198-2.172h-2c0 .61-.056 1.218-.165 1.807zM57.84 14.187l1.969-.348a11.615 11.615 0 0 0-.581-2.105l-1.869.711c.214.566.376 1.152.481 1.742zM40.812 9.048l-1.438-1.391a12.067 12.067 0 0 0-1.366 1.695l1.664 1.109a10.1 10.1 0 0 1 1.14-1.413zM56.137 33.852l1.998.074c.024-.661.055-1.322.09-1.982l-1.998-.105a112.9 112.9 0 0 0-.09 2.013zM41 52c0 1.654 1.346 3 3 3s3-1.346 3-3-1.346-3-3-3-3 1.346-3 3zm4 0a1 1 0 1 1-2 0 1 1 0 0 1 2 0zM54 41c0-1.654-1.346-3-3-3s-3 1.346-3 3 1.346 3 3 3 3-1.346 3-3zm-4 0a1 1 0 1 1 2 0 1 1 0 0 1-2 0zM43 36c1.654 0 3-1.346 3-3s-1.346-3-3-3-3 1.346-3 3 1.346 3 3 3zm0-4a1 1 0 1 1 0 2 1 1 0 0 1 0-2zM45 17c2.206 0 4-1.794 4-4s-1.794-4-4-4-4 1.794-4 4 1.794 4 4 4zm0-6c1.103 0 2 .897 2 2s-.897 2-2 2-2-.897-2-2 .897-2 2-2z" fill="#38b6ff" opacity="1" data-original="#000000" class=""></path></g></svg>