<svg xmlns="http://www.w3.org/2000/svg" version="1.1" xmlns:xlink="http://www.w3.org/1999/xlink" width="512" height="512" x="0" y="0" viewBox="0 0 512 512" style="enable-background:new 0 0 512 512" xml:space="preserve" class=""><g><path d="M441.485 51.3c-40.63-18.694-93.388 8.777-117.61 61.234-13.717 29.706-15.976 61.944-6.195 88.448 7 18.963 19.431 33.005 35.958 40.608a64.646 64.646 0 0 0 27.2 5.866c34.6 0 71.344-25.81 90.409-67.1 13.717-29.706 15.975-61.945 6.194-88.448-6.996-18.959-19.429-33.001-35.956-40.608zm.267 13.718a56.2 56.2 0 0 1 19.954 21.244l-1.862 4.03L435.3 79zm-84.794 90.557 9.266-20.068 24.547 11.294-9.266 20.068zm19.517 22.189-9.266 20.067-24.548-11.294 9.266-20.067zm-5.221-53.151 9.267-20.068 24.547 11.294-9.268 20.072zm30.419 27.2 24.548 11.294-9.266 20.068-24.548-11.294zm5.031-10.9 9.266-20.067 24.548 11.294-9.267 20.068zM421 109.964l9.266-20.064 24.548 11.294-9.266 20.067zm-19.3-51.288a61.782 61.782 0 0 1 12.357-1.294 53.946 53.946 0 0 1 16.79 2.628L424.4 73.987l-24.553-11.295zm-6.885 14.911 24.548 11.294-9.263 20.068-24.549-11.294zM380.1 66.815l3.817 1.756-9.266 20.068-14.728-6.776A97.319 97.319 0 0 1 380.1 66.815zm-28.753 24.312 18.272 8.407-9.266 20.066-21.581-9.929a119.687 119.687 0 0 1 12.575-18.544zm-17.861 29.322 21.836 10.051-9.266 20.068-19.532-8.987a122.756 122.756 0 0 1 6.962-21.132zm-9.06 57.7a100.549 100.549 0 0 1-.03-24.344l16.63 7.651-9.266 20.068zm28.919 49.709A56.23 56.23 0 0 1 333.4 206.6l4.232-9.164 24.547 11.294zm40.033 6.383a56.741 56.741 0 0 1-29.132-1.366l8.834-19.131 24.547 11.294zm9.28-20.1-24.548-11.29 9.267-20.068 24.547 11.294zm18.228 8.387-7.327-3.371 9.266-20.068 16.609 7.641a102.4 102.4 0 0 1-18.548 15.802zm26.5-25.346-19.53-8.982 9.266-20.068 21.862 10.058a121.94 121.94 0 0 1-11.593 18.996zm16.382-30-21.621-9.948 9.267-20.068 18.344 8.441a119.9 119.9 0 0 1-5.985 21.577zm7.484-34.1-14.808-6.813 9.266-20.067 3.853 1.772a95.75 95.75 0 0 1 1.694 25.113z" fill="#38b6ff" opacity="1" data-original="#000000" class=""></path><path d="M452.888 26.608C400.856 2.67 333.706 36.949 303.2 103.024c-17.093 37.02-19.828 77.411-7.5 110.814 6.337 17.173 16.171 31.213 28.874 41.475l-23.839 51.631-2.588-.553a53.384 53.384 0 0 0-8.551-1.119l-4.373-6.338a25.207 25.207 0 0 1-4.264-17.563 37.191 37.191 0 0 0-6.288-25.912L142.754 64.315A38.472 38.472 0 0 0 89.366 54.5a38.3 38.3 0 0 0-9.838 53.32l77.144 111.78a128.009 128.009 0 1 0 67.353 216.461 125.41 125.41 0 0 0 2.69-2.775 44.929 44.929 0 1 0 64.428-24.279l9.692 2 10.808 5.854 26.923 39.014-.788.541a13.722 13.722 0 0 0-3.521 19.1 28.058 28.058 0 0 0 38.942 7.164l15.78-10.851a28.014 28.014 0 0 0 8.139-8.671l6.7 3.629a30.178 30.178 0 0 0 22.289 2.612l26.075-7.017a10.066 10.066 0 0 0 5.615-15.523L438 418.792l37.035-15.649c.042-.017.083-.036.124-.054a10.064 10.064 0 0 0 2.723-16.563l-26.424-25.811 29.005-18.486a10.065 10.065 0 0 0 .58-16.579l-21.377-15.829a30.216 30.216 0 0 0-20.223-5.86l-94.7 6.115 17.333-37.541a86.717 86.717 0 0 0 15.512 1.385c44.008 0 90.436-32.26 114.348-84.046 17.094-37.02 19.828-77.411 7.5-110.814-9.036-24.46-25.126-42.595-46.548-52.452zm-162.77 290.728-16.338 76.17c-5.472-.6-13.323-2.1-18.379-8.476a128.179 128.179 0 0 0 6.207-39.541 130.14 130.14 0 0 0-.753-13.922c3.118-9.405 15.616-15.267 29.263-14.231zm-27.03 86.29a44.649 44.649 0 0 0-19.67 7.688 126.512 126.512 0 0 0 7.3-14.009 35.142 35.142 0 0 0 12.37 6.321zM152.45 231.038a116.715 116.715 0 0 1 21.615 5.742 6 6 0 0 0 7.153-2.36v-.007a6 6 0 0 0-2.927-8.862c-1.286-.479-2.58-.929-3.878-1.365L89.405 101a26.3 26.3 0 0 1 6.76-36.617 26.458 26.458 0 0 1 36.712 6.748l131.91 191.145a25.2 25.2 0 0 1 4.263 17.564 37.189 37.189 0 0 0 6.289 25.91l.486.7a40.833 40.833 0 0 0-17.808 8.769 127.209 127.209 0 0 0-33.992-60.307q-3.73-3.725-7.689-7.073a6 6 0 1 0-7.734 9.169c.868.737 1.718 1.5 2.569 2.272L171.18 299.2a81.267 81.267 0 0 1-18.73-68.162zm95.588 95.316a81.645 81.645 0 0 1-68.364-18.674l40-39.932a114.947 114.947 0 0 1 28.364 58.606zM133.3 229.458q3.606 0 7.208.226a93.145 93.145 0 0 0 22.157 78.016L133.3 337.011l-77.88-77.74a116.086 116.086 0 0 1 77.88-29.813zM17 345.489a115.117 115.117 0 0 1 29.931-77.741l77.88 77.741-29.2 29.147A95.066 95.066 0 0 0 17.22 352.56c-.141-2.345-.22-4.702-.22-7.071zm1.549 19A81.62 81.62 0 0 1 87.1 383.131l-40.171 40.1a114.943 114.943 0 0 1-28.38-58.739zm95.741 95.475a115.728 115.728 0 0 1-58.866-28.26l40.172-40.1a81.234 81.234 0 0 1 18.694 68.363zm11.931 1.331a94.682 94.682 0 0 0-22.121-78.18l29.2-29.148 77.88 77.74a116.214 116.214 0 0 1-84.959 29.593zm93.457-38.069L141.8 345.489l29.375-29.322a93.4 93.4 0 0 0 61.976 23.533 95.248 95.248 0 0 0 16.23-1.408c.145 2.387.227 4.786.227 7.2a115.119 115.119 0 0 1-29.93 77.737zm82.361 24.912a32.929 32.929 0 1 1-32.93-32.93 32.966 32.966 0 0 1 32.93 32.933zm-3.716-49.938-12.695-2.713 16.3-76.012 12.695 2.714zm36.605 31.273 23.512 12.736-9.986 6.866zm47.252 32.469-15.78 10.85a16.048 16.048 0 0 1-22.266-4.091 1.719 1.719 0 0 1 .444-2.4l25.709-17.678 16.254 8.8a15.983 15.983 0 0 1-4.361 4.515zm64.213-10.428-23.406 6.3a18.2 18.2 0 0 1-13.455-1.577l-99.791-54.051 4.5-21 107.011 38.8a13.1 13.1 0 0 1 6.27 4.786zm21.2-58.252-39.452 16.668-111.356-40.588 2.573-12 116.663 8.5a25.206 25.206 0 0 0 3.283-.224zm-27.321-77.326a18.24 18.24 0 0 1 12.247 3.534l19.115 14.154-28.491 18.16a13.259 13.259 0 0 1-8.058 2.031L321.9 345.5l4.769-22.235zm-109.162-4.98-8.916.576-9.436-2.017 21.812-47.241a84.423 84.423 0 0 0 7.664 4.016 82.7 82.7 0 0 0 8.027 3.19zm149.922-126.112c-27.739 60.074-87.751 91.721-133.782 70.544-18.466-8.5-32.4-24.3-40.3-45.7-11.231-30.438-8.63-67.481 7.139-101.631 21.894-47.417 63.895-77.123 103.257-77.123a72.556 72.556 0 0 1 30.524 6.579c18.466 8.5 32.4 24.3 40.3 45.7 11.23 30.438 8.63 67.481-7.138 101.631z" fill="#38b6ff" opacity="1" data-original="#000000" class=""></path><path d="m108.222 85.293-1.143-1.716a6 6 0 1 0-9.988 6.649l1.142 1.716a6 6 0 1 0 9.989-6.649zM118.358 100.521a6 6 0 0 0-9.988 6.65l42.766 64.244a6 6 0 1 0 9.988-6.649z" fill="#38b6ff" opacity="1" data-original="#000000" class=""></path></g></svg>