<svg xmlns="http://www.w3.org/2000/svg" version="1.1" xmlns:xlink="http://www.w3.org/1999/xlink" width="512" height="512" x="0" y="0" viewBox="0 0 64 64" style="enable-background:new 0 0 512 512" xml:space="preserve" class=""><g><path d="M63 58.502H1a1 1 0 1 1 0-2h61v-4H1a1 1 0 1 1 0-2h62a1 1 0 0 1 1 1v6a1 1 0 0 1-1 1zM61 38.502a1 1 0 0 1-1-1c0-3.859-3.141-7-7-7a1 1 0 1 1 0-2c4.963 0 9 4.037 9 9a1 1 0 0 1-1 1z" fill="#38b6ff" opacity="1" data-original="#000000" class=""></path><path d="M61 52.502a1 1 0 0 1-1-1v-14a1 1 0 1 1 2 0v14a1 1 0 0 1-1 1zM28.999 30.518c-.2 0-.401-.06-.577-.185l-24-17.016a.999.999 0 0 1-.237-1.394.997.997 0 0 1 1.394-.237l24 17.016a.999.999 0 0 1-.58 1.816z" fill="#38b6ff" opacity="1" data-original="#000000" class=""></path><path d="M10.887 23.311a1 1 0 0 1-.811-1.584l2.678-3.736a1 1 0 1 1 1.625 1.167L11.7 22.894a1.001 1.001 0 0 1-.813.417zM15.866 26.881a1 1 0 0 1-.811-1.584l2.696-3.762a1 1 0 1 1 1.625 1.167l-2.696 3.762a1 1 0 0 1-.814.417zM20.845 30.455a1 1 0 0 1-.811-1.584l2.719-3.793a1 1 0 1 1 1.625 1.167l-2.719 3.793a.999.999 0 0 1-.814.417zM25.824 34.031a1 1 0 0 1-.811-1.584l2.738-3.818a1 1 0 1 1 1.625 1.167l-2.738 3.818a.998.998 0 0 1-.814.417z" fill="#38b6ff" opacity="1" data-original="#000000" class=""></path><path d="M53 30.502H29a1 1 0 1 1 0-2h24a1 1 0 1 1 0 2zM1 17.502a1 1 0 1 1 0-2c1.654 0 3-1.346 3-3a1 1 0 1 1 2 0c0 2.757-2.243 5-5 5z" fill="#38b6ff" opacity="1" data-original="#000000" class=""></path><path d="M38.976 30.479a.997.997 0 0 1-.707-.293L23.292 15.209a.999.999 0 1 1 1.414-1.414l14.977 14.977a.999.999 0 0 1-.707 1.707z" fill="#38b6ff" opacity="1" data-original="#000000" class=""></path><path d="M38.976 30.479a.999.999 0 0 1-.707-1.707l15-15a.999.999 0 1 1 1.414 1.414l-15 15a1 1 0 0 1-.707.293z" fill="#38b6ff" opacity="1" data-original="#000000" class=""></path><path d="M46.983 30.479a.997.997 0 0 1-.707-.293L31.3 15.209a.999.999 0 1 1 1.414-1.414L47.69 28.771a.999.999 0 0 1-.707 1.708z" fill="#38b6ff" opacity="1" data-original="#000000" class=""></path><path d="M46.983 30.479a.999.999 0 0 1-.707-1.707l15-15a.999.999 0 1 1 1.414 1.414l-15 15a.997.997 0 0 1-.707.293zM43.002 15.504c-2.206 0-4-1.794-4-4 0-1.942 2.712-5.063 3.256-5.67.379-.422 1.109-.422 1.488 0 .544.606 3.256 3.728 3.256 5.67 0 2.206-1.794 4-4 4zm0-7.453c-1.061 1.326-2 2.815-2 3.453 0 1.103.897 2 2 2s2-.897 2-2c0-.62-.938-2.12-2-3.453zM35.028 7.498c-.553 0-1.005-.447-1.005-1s.442-1 .994-1h.011a1 1 0 1 1 0 2zM27.006 10.506c-.553 0-1.005-.447-1.005-1s.442-1 .994-1h.011a1 1 0 1 1 0 2zM51.023 7.498c-.553 0-1.005-.447-1.005-1s.442-1 .994-1h.011a1 1 0 1 1 0 2zM59.046 10.506c-.553 0-1.005-.447-1.005-1s.442-1 .994-1h.011a1 1 0 1 1 0 2z" fill="#38b6ff" opacity="1" data-original="#000000" class=""></path></g></svg>